<svg xmlns="http://www.w3.org/2000/svg" height="187.177" width="641.249"><defs><clipPath id="a" clipPathUnits="userSpaceOnUse"><path d="M0 140.383h480.937V0H0z"/></clipPath></defs><g clip-path="url(#a)" transform="matrix(1.33333 0 0 -1.33333 0 187.177)"><path d="M133.908 94.781c.984-2.615 2.137-4.698 3.461-6.252 2.31-2.71 5.175-4.066 8.602-4.066 1.852 0 3.458.588 4.81 1.763 1.352 1.174 2.027 2.815 2.027 4.917 0 1.894-.68 3.543-2.039 4.945-.89.893-2.764 2.227-5.618 4.01l-4.967 3.097c-1.494.946-2.685 1.904-3.577 2.87-1.647 1.84-2.47 3.865-2.47 6.084 0 2.937.975 5.382 2.925 7.332 1.953 1.952 4.538 2.93 7.761 2.93 1.326 0 2.921-.329 4.79-.983 1.866-.653 2.93-.979 3.195-.979.722 0 1.218.171 1.495.51.274.342.485.824.637 1.451h1.194l1.28-12.393h-1.394c-.946 3.732-2.468 6.34-4.56 7.817-2.094 1.478-4.166 2.216-6.21 2.216-1.593 0-2.982-.469-4.165-1.408-1.185-.938-1.777-2.24-1.777-3.908 0-1.497.454-2.775 1.362-3.836.906-1.079 2.317-2.208 4.23-3.382l5.112-3.155c3.201-1.972 5.455-3.78 6.768-5.43 1.294-1.668 1.941-3.637 1.941-5.91 0-3.052-1.149-5.602-3.452-7.647-2.303-2.048-5.246-3.07-8.827-3.07-1.8 0-3.68.341-5.642 1.022-1.96.684-3.084 1.025-3.369 1.025-.68 0-1.142-.209-1.377-.626a3.986 3.986 0 0 1-.47-1.335h-1.278l-1.735 12.391zM180.128 98.817c-2.178-.719-3.979-1.517-5.4-2.387-2.729-1.687-4.094-3.6-4.094-5.742 0-1.723.57-2.995 1.707-3.809a4.15 4.15 0 0 1 2.474-.794c1.25 0 2.45.35 3.594 1.05 1.147.702 1.72 1.592 1.72 2.671zM169.7 95.605c1.741 1.137 5.22 2.683 10.43 4.633v2.417c0 1.931-.19 3.277-.568 4.036-.645 1.27-1.98 1.904-4.009 1.904a5.542 5.542 0 0 1-2.756-.737c-.873-.513-1.307-1.216-1.307-2.105 0-.228.046-.61.141-1.15.095-.54.144-.888.144-1.039 0-1.06-.353-1.8-1.053-2.216-.398-.247-.873-.369-1.42-.369-.853 0-1.506.28-1.962.838-.456.56-.684 1.18-.684 1.86 0 1.327.82 2.716 2.461 4.164 1.638 1.452 4.038 2.176 7.204 2.176 3.675 0 6.168-1.194 7.475-3.58.7-1.308 1.053-3.215 1.053-5.716V89.323c0-1.098.076-1.855.228-2.273.244-.738.757-1.109 1.532-1.109.437 0 .798.067 1.082.2.283.134.776.453 1.48.966V85.63c-.609-.738-1.262-1.346-1.962-1.82-1.063-.719-2.143-1.08-3.242-1.08-1.288 0-2.22.418-2.799 1.251-.578.835-.895 1.828-.952 2.986-1.44-1.25-2.672-2.18-3.694-2.786-1.726-1.025-3.367-1.535-4.918-1.535-1.63 0-3.043.572-4.237 1.72-1.194 1.144-1.79 2.601-1.79 4.362 0 2.747 1.375 5.04 4.123 6.878M193.208 83.866c1.346.171 2.29.507 2.829 1.01.54.501.809 1.624.809 3.368v14.438c0 1.205-.114 2.051-.34 2.54-.36.712-1.101 1.071-2.218 1.071-.171 0-.345-.009-.526-.028a17.425 17.425 0 0 1-.668-.087v.996c.776.228 2.615.814 5.515 1.763l2.671.882c.134 0 .215-.049.242-.144.03-.095.043-.228.043-.399V105.1c1.739 1.63 3.101 2.748 4.085 3.355 1.476.928 3.008 1.392 4.595 1.392a5.994 5.994 0 0 0 3.518-1.109c2.043-1.44 3.066-4.007 3.066-7.7V87.76c0-1.364.271-2.349.816-2.957.545-.605 1.459-.919 2.737-.938v-.795h-12.138v.795c1.383.19 2.348.575 2.899 1.153.551.577.825 1.833.825 3.764v12.14c0 1.627-.302 2.977-.906 4.048-.603 1.072-1.715 1.606-3.334 1.606-1.112 0-2.243-.379-3.391-1.136-.642-.437-1.47-1.156-2.487-2.162V87.362c0-1.364.301-2.278.909-2.742.605-.464 1.562-.716 2.869-.754v-.795h-12.42zM261.05 118.344c-1.646.722-3.732 1.08-6.252 1.08-1.194 0-1.93-.117-2.203-.356-.274-.236-.412-.762-.412-1.576v-15.179a87.362 87.362 0 0 1 2.048-.17c.32-.02.632-.028.936-.028 2.672 0 4.777.377 6.312 1.137 2.785 1.383 4.177 3.968 4.177 7.76 0 3.561-1.536 6.006-4.606 7.332m-19.638-34.193c2.216.21 3.599.645 4.147 1.315.55.67.824 2.203.824 4.598v25.212c0 2.026-.306 3.361-.921 4.006-.616.644-1.967 1.053-4.05 1.224v1.08h15.347c4.926 0 8.699-.958 11.313-2.873 2.615-1.912 3.923-4.432 3.923-7.56 0-3.96-1.451-6.83-4.348-8.612-2.9-1.782-6.53-2.672-10.888-2.672-.624 0-1.427.014-2.401.044-.976.027-1.701.04-2.175.04V89.38c0-2.186.336-3.56 1.009-4.125.672-.567 2.175-.933 4.505-1.104v-1.08h-16.285zM279.06 104.787c-.607-1.023-1.044-2.314-1.307-3.866h11.994c-.208 1.894-.569 3.307-1.08 4.235-.93 1.668-2.484 2.501-4.662 2.501-2.159 0-3.808-.957-4.945-2.87m13.614 2.172c2.007-1.847 3.013-4.467 3.013-7.858H277.64c.19-4.386 1.182-7.58 2.983-9.585 1.802-2.005 3.934-3.006 6.396-3.006 1.99 0 3.668.521 5.032 1.56 1.364 1.04 2.623 2.514 3.78 4.424l.994-.342c-.779-2.408-2.232-4.638-4.362-6.689-2.13-2.05-4.744-3.073-7.83-3.073-3.565 0-6.318 1.342-8.26 4.036-1.942 2.688-2.913 5.788-2.913 9.293 0 3.808 1.128 7.096 3.382 9.862 2.257 2.767 5.192 4.151 8.813 4.151 2.672 0 5.013-.923 7.02-2.773M318.953 86.91c.908.87 1.364 1.695 1.364 2.47v12.196c0 2.463-.659 4.202-1.974 5.216-1.319 1.012-2.602 1.519-3.852 1.519-2.388 0-4.245-1.055-5.57-3.168-1.328-2.113-1.992-4.714-1.992-7.804 0-3.05.708-5.77 2.118-8.156 1.41-2.387 3.52-3.581 6.325-3.581 1.478 0 2.672.434 3.581 1.308m-.825 22.112c.757-.4 1.487-.947 2.19-1.65v9.04c0 1.157-.129 1.952-.384 2.388-.257.437-.868.654-1.833.654-.228 0-.428-.011-.596-.03a71.27 71.27 0 0 0-1.14-.111v.936l2.333.597c.852.228 1.703.463 2.558.71.851.247 1.6.483 2.246.71.301.096.803.275 1.505.54l.171-.056-.057-2.984-.057-3.34a204.916 204.916 0 0 1-.027-3.395l-.057-23.225c0-1.231.15-2.093.452-2.584.305-.494 1.11-.741 2.417-.741.21 0 .416.006.625.016.208.009.417.033.626.07v-.937a2332.7 2332.7 0 0 1-4.12-1.422l-4.465-1.676-.198.255v3.496c-1.06-1.155-1.98-1.98-2.756-2.474-1.383-.851-2.986-1.277-4.803-1.277-3.223 0-5.832 1.245-7.83 3.738-2 2.49-3 5.376-3 8.655 0 4.112 1.197 7.64 3.595 10.587 2.396 2.946 5.33 4.419 8.797 4.419 1.383 0 2.653-.302 3.808-.91M332.795 84.01c1.744.152 2.899.458 3.467.922.569.464.853 1.454.853 2.97v12.819c0 1.878-.175 3.218-.525 4.023-.351.806-.99 1.207-1.918 1.207a5.16 5.16 0 0 1-.754-.07 13.8 13.8 0 0 1-.982-.185v.939l3.317 1.166c1.13.396 1.915.68 2.352.852.944.36 1.915.768 2.916 1.223.132 0 .214-.05.24-.143.03-.096.045-.293.045-.598v-4.66c1.215 1.685 2.389 3.003 3.517 3.95 1.132.947 2.306 1.42 3.522 1.42.97 0 1.758-.29 2.365-.867.61-.577.914-1.301.914-2.172 0-.78-.233-1.433-.697-1.962a2.226 2.226 0 0 0-1.75-.797c-.72 0-1.443.334-2.172.996-.731.664-1.305.995-1.72.995-.665 0-1.478-.537-2.444-1.606-.97-1.071-1.451-2.175-1.451-3.312V88.3c0-1.63.38-2.76 1.136-3.395.759-.635 2.018-.933 3.782-.895v-.938h-14.013zM363.378 106.55c-1.898-1.725-2.85-4.7-2.85-8.927 0-3.37.764-6.518 2.293-9.436 1.528-2.919 3.649-4.378 6.365-4.378 2.126 0 3.764.976 4.912 2.93 1.15 1.95 1.722 4.507 1.722 7.673 0 3.28-.73 6.366-2.192 9.265-1.462 2.9-3.577 4.35-6.35 4.35-1.5 0-2.801-.492-3.9-1.477m-4.541-.727c2.398 2.607 5.482 3.91 9.253 3.91 3.75 0 6.859-1.233 9.322-3.696 2.463-2.463 3.695-5.742 3.695-9.835 0-3.77-1.194-7.049-3.581-9.833-2.387-2.785-5.476-4.179-9.265-4.179-3.638 0-6.72 1.337-9.24 4.008-2.52 2.672-3.778 6.025-3.778 10.061 0 3.77 1.197 6.96 3.594 9.564M158.353 60.474c2.178-.626 3.428-.938 3.751-.938.833 0 1.427.16 1.777.481.35.323.648.787.895 1.392h1.28l.453-12.248h-1.334c-1.194 2.822-2.428 4.924-3.697 6.308-2.292 2.424-5.276 3.64-8.952 3.64-3.735 0-7.017-1.419-9.848-4.25-2.835-2.835-4.251-7.5-4.251-14 0-5.363 1.41-9.55 4.234-12.564 2.824-3.01 6.312-4.519 10.462-4.519.7 0 1.524.068 2.471.201.95.13 1.847.34 2.702.623 1.383.454 2.246.844 2.585 1.175.342.332.513.82.513 1.463v9.274c0 2.248-.318 3.648-.953 4.201-.634.551-2.023.895-4.163 1.028v1.08h14.837v-1.08c-1.44-.095-2.398-.33-2.872-.71-.795-.608-1.194-1.859-1.194-3.752V25.825c0-.684-1.671-1.592-5.015-2.729-3.345-1.135-6.562-1.705-9.651-1.705-5.686 0-10.479 1.657-14.382 4.975-4.302 3.656-6.453 8.563-6.453 14.723 0 5.42 1.715 10.06 5.146 13.927 3.77 4.263 8.772 6.395 15.008 6.395 2.254 0 4.47-.312 6.651-.936M190.683 37.96c-2.178-.72-3.979-1.516-5.4-2.387-2.729-1.687-4.094-3.6-4.094-5.742 0-1.723.57-2.995 1.706-3.81a4.159 4.159 0 0 1 2.474-.793c1.251 0 2.45.35 3.594 1.049 1.147.703 1.72 1.593 1.72 2.672zm-10.43-3.211c1.742 1.136 5.22 2.682 10.43 4.632v2.417c0 1.932-.19 3.277-.567 4.037-.646 1.269-1.98 1.904-4.009 1.904a5.532 5.532 0 0 1-2.756-.738c-.874-.513-1.308-1.215-1.308-2.105 0-.228.047-.61.141-1.15.096-.54.145-.887.145-1.04 0-1.06-.353-1.8-1.053-2.215-.399-.247-.873-.37-1.422-.37-.85 0-1.505.28-1.96.839-.456.559-.684 1.18-.684 1.86 0 1.327.82 2.716 2.46 4.164 1.638 1.452 4.04 2.176 7.204 2.176 3.676 0 6.17-1.194 7.476-3.58.7-1.308 1.052-3.215 1.052-5.716V28.466c0-1.098.076-1.855.228-2.273.244-.737.757-1.11 1.533-1.11.437 0 .797.069 1.082.202.282.133.776.453 1.48.966v-1.48a9.387 9.387 0 0 0-1.963-1.82c-1.063-.718-2.142-1.078-3.24-1.078-1.29 0-2.223.417-2.8 1.25-.578.836-.895 1.828-.953 2.986-1.44-1.25-2.67-2.18-3.694-2.785-1.725-1.026-3.366-1.535-4.917-1.535-1.63 0-3.044.572-4.237 1.719-1.194 1.145-1.79 2.6-1.79 4.362 0 2.748 1.375 5.04 4.122 6.879M203.38 23.153c1.744.152 2.9.458 3.467.922.569.464.854 1.454.854 2.97v12.819c0 1.877-.176 3.218-.526 4.023-.35.806-.99 1.207-1.918 1.207a5.16 5.16 0 0 1-.754-.07c-.312-.046-.64-.11-.982-.185v.939l3.317 1.166c1.13.396 1.916.68 2.352.852.944.36 1.915.768 2.916 1.223.133 0 .214-.05.24-.144.032-.095.045-.293.045-.597v-4.66c1.215 1.685 2.389 3.003 3.518 3.95 1.13.947 2.305 1.42 3.52 1.42.972 0 1.759-.29 2.366-.867.61-.577.914-1.301.914-2.173 0-.778-.233-1.432-.697-1.961a2.226 2.226 0 0 0-1.75-.797c-.718 0-1.443.334-2.172.996-.73.664-1.305.995-1.72.995-.664 0-1.478-.537-2.444-1.606-.968-1.071-1.451-2.175-1.451-3.312v-12.82c0-1.63.38-2.76 1.136-3.395.76-.635 2.019-.933 3.782-.895v-.938H203.38zM248.442 48.335v-.68l-15.776-23.65h8.043c2.785 0 4.548.354 5.29 1.065.737.711 1.466 2.45 2.185 5.216l.996-.198-.795-7.874h-22.028v.654l15.548 23.734h-7.62c-2.045 0-3.382-.353-4.006-1.053-.627-.699-1.063-2.064-1.307-4.093h-.996l.084 6.88zM269.328 37.96c-2.18-.72-3.979-1.516-5.4-2.387-2.729-1.687-4.094-3.6-4.094-5.742 0-1.723.567-2.995 1.707-3.81a4.15 4.15 0 0 1 2.471-.793c1.25 0 2.45.35 3.596 1.049 1.145.703 1.72 1.593 1.72 2.672zm-10.432-3.211c1.744 1.136 5.222 2.682 10.432 4.632v2.417c0 1.932-.19 3.277-.569 4.037-.643 1.269-1.98 1.904-4.007 1.904a5.54 5.54 0 0 1-2.758-.738c-.87-.513-1.308-1.215-1.308-2.105 0-.228.05-.61.144-1.15.095-.54.141-.887.141-1.04 0-1.06-.35-1.8-1.052-2.215-.397-.247-.87-.37-1.422-.37-.852 0-1.505.28-1.96.839-.454.559-.682 1.18-.682 1.86 0 1.327.82 2.716 2.458 4.164 1.638 1.452 4.041 2.176 7.207 2.176 3.675 0 6.168-1.194 7.475-3.58.7-1.308 1.05-3.215 1.05-5.716V28.466c0-1.098.076-1.855.228-2.273.247-.737.757-1.11 1.535-1.11.437 0 .795.069 1.08.202.285.133.778.453 1.478.966v-1.48a9.358 9.358 0 0 0-1.96-1.82c-1.06-.718-2.14-1.078-3.243-1.078-1.288 0-2.22.417-2.799 1.25-.578.836-.895 1.828-.952 2.986-1.44-1.25-2.67-2.18-3.694-2.785-1.725-1.026-3.364-1.535-4.918-1.535-1.63 0-3.04.572-4.234 1.719-1.194 1.145-1.79 2.6-1.79 4.362 0 2.748 1.372 5.04 4.12 6.879M325.886 60.474c2.179-.626 3.429-.938 3.752-.938.832 0 1.427.16 1.776.481.35.323.649.787.896 1.392h1.28l.452-12.248h-1.334c-1.193 2.822-2.427 4.924-3.697 6.308-2.292 2.424-5.275 3.64-8.951 3.64-3.736 0-7.018-1.419-9.85-4.25-2.834-2.835-4.25-7.5-4.25-14 0-5.363 1.41-9.55 4.235-12.564 2.823-3.01 6.31-4.519 10.462-4.519.7 0 1.524.068 2.47.201.95.13 1.848.34 2.702.623 1.384.454 2.246.844 2.585 1.175.342.332.513.82.513 1.463v9.274c0 2.248-.317 3.648-.952 4.201-.635.551-2.024.895-4.164 1.028v1.08h14.838v-1.08c-1.441-.095-2.4-.33-2.873-.71-.795-.608-1.194-1.859-1.194-3.752V25.825c0-.684-1.671-1.592-5.015-2.729-3.344-1.135-6.561-1.705-9.651-1.705-5.685 0-10.478 1.657-14.382 4.975-4.301 3.656-6.452 8.563-6.452 14.723 0 5.42 1.714 10.06 5.145 13.927 3.77 4.263 8.772 6.395 15.009 6.395 2.254 0 4.469-.312 6.65-.936M358.216 37.96c-2.178-.72-3.98-1.516-5.4-2.387-2.73-1.687-4.093-3.6-4.093-5.742 0-1.723.569-2.995 1.706-3.81a4.157 4.157 0 0 1 2.474-.793c1.25 0 2.449.35 3.593 1.049 1.148.703 1.72 1.593 1.72 2.672zm-10.43-3.211c1.742 1.136 5.219 2.682 10.43 4.632v2.417c0 1.932-.19 3.277-.566 4.037-.646 1.269-1.981 1.904-4.01 1.904a5.535 5.535 0 0 1-2.756-.738c-.873-.513-1.307-1.215-1.307-2.105 0-.228.046-.61.14-1.15.096-.54.145-.887.145-1.04 0-1.06-.353-1.8-1.052-2.215-.4-.247-.874-.37-1.422-.37-.852 0-1.505.28-1.961.839-.456.559-.684 1.18-.684 1.86 0 1.327.82 2.716 2.46 4.164 1.639 1.452 4.039 2.176 7.204 2.176 3.676 0 6.169-1.194 7.476-3.58.7-1.308 1.053-3.215 1.053-5.716V28.466c0-1.098.076-1.855.227-2.273.244-.737.757-1.11 1.533-1.11.437 0 .797.069 1.082.202.283.133.776.453 1.479.966v-1.48a9.383 9.383 0 0 0-1.961-1.82c-1.063-.718-2.143-1.078-3.242-1.078-1.288 0-2.221.417-2.8 1.25-.577.836-.894 1.828-.951 2.986-1.441-1.25-2.672-2.18-3.694-2.785-1.726-1.026-3.367-1.535-4.918-1.535-1.63 0-3.043.572-4.237 1.719-1.193 1.145-1.791 2.6-1.791 4.362 0 2.748 1.376 5.04 4.123 6.879M370.916 23.153c1.741.152 2.896.458 3.466.922.57.464.852 1.454.852 2.97v12.819c0 1.877-.173 3.218-.526 4.023-.351.806-.99 1.207-1.918 1.207-.189 0-.439-.022-.754-.07a13.729 13.729 0 0 1-.979-.185v.939l3.314 1.166c1.134.396 1.918.68 2.353.852.943.36 1.917.768 2.918 1.223.132 0 .212-.05.241-.144.027-.095.041-.293.041-.597v-4.66c1.218 1.685 2.389 3.003 3.52 3.95 1.132.947 2.304 1.42 3.522 1.42.968 0 1.758-.29 2.365-.867.607-.577.911-1.301.911-2.173 0-.778-.23-1.432-.697-1.961a2.224 2.224 0 0 0-1.747-.797c-.721 0-1.445.334-2.175.996-.729.664-1.302.995-1.72.995-.662 0-1.478-.537-2.444-1.606-.966-1.071-1.448-2.175-1.448-3.312v-12.82c0-1.63.377-2.76 1.136-3.395.757-.635 2.018-.933 3.782-.895v-.938h-14.013zM412.411 47.19c1.714-1.217 2.571-2.554 2.571-4.008 0-.624-.217-1.204-.653-1.741-.435-.538-1.106-.81-2.019-.81-.66 0-1.245.229-1.746.685-.502.453-.868 1.117-1.093 1.988l-.342 1.364c-.247 1.004-.673 1.714-1.28 2.132-.625.399-1.449.597-2.47.597-2.163 0-3.986-.944-5.475-2.832-1.486-1.888-2.23-4.397-2.23-7.527 0-2.867.82-5.436 2.458-7.714 1.638-2.276 3.851-3.415 6.637-3.415 1.972 0 3.724.645 5.26 1.936.87.74 1.855 1.918 2.953 3.532l.798-.483c-1.08-2.278-2.217-4.08-3.412-5.406-2.292-2.544-4.945-3.814-7.959-3.814-2.954 0-5.568 1.167-7.845 3.497-2.272 2.33-3.409 5.496-3.409 9.494 0 3.922 1.24 7.294 3.722 10.117 2.484 2.824 5.62 4.237 9.41 4.237 2.367 0 4.41-.61 6.124-1.828M436.086 58.483c-.302-.361-.75-.73-1.335-1.11l-8.954-5.655h-2.36l8.555 8.612c.304.304.684.616 1.14.939.453.322.935.483 1.448.483.494 0 .942-.177 1.35-.527.408-.35.61-.808.61-1.378 0-.551-.15-1.003-.454-1.364m-15.52-35.474c2.028.19 3.308.537 3.839 1.039.53.502.795 1.86.795 4.08v13.557c0 1.23-.084 2.083-.255 2.557-.284.776-.881 1.167-1.793 1.167-.206 0-.41-.02-.61-.057-.198-.038-.772-.19-1.72-.456v.88l1.224.4c3.314 1.08 5.628 1.893 6.936 2.444.529.228.87.342 1.022.342.038-.133.058-.276.058-.43V28.129c0-2.162.259-3.516.78-4.066.52-.551 1.7-.901 3.54-1.053v-.795h-13.815zM453.714 37.96c-2.178-.72-3.98-1.516-5.4-2.387-2.73-1.687-4.093-3.6-4.093-5.742 0-1.723.569-2.995 1.706-3.81a4.157 4.157 0 0 1 2.474-.793c1.25 0 2.449.35 3.593 1.049 1.148.703 1.72 1.593 1.72 2.672zm-10.43-3.211c1.742 1.136 5.219 2.682 10.43 4.632v2.417c0 1.932-.19 3.277-.566 4.037-.646 1.269-1.981 1.904-4.01 1.904a5.535 5.535 0 0 1-2.756-.738c-.873-.513-1.307-1.215-1.307-2.105 0-.228.046-.61.14-1.15.096-.54.145-.887.145-1.04 0-1.06-.353-1.8-1.053-2.215-.4-.247-.873-.37-1.421-.37-.852 0-1.506.28-1.961.839-.456.559-.684 1.18-.684 1.86 0 1.327.82 2.716 2.46 4.164 1.639 1.452 4.039 2.176 7.204 2.176 3.676 0 6.169-1.194 7.476-3.58.7-1.308 1.053-3.215 1.053-5.716V28.466c0-1.098.076-1.855.227-2.273.244-.737.757-1.11 1.533-1.11.437 0 .797.069 1.082.202.283.133.776.453 1.479.966v-1.48a9.383 9.383 0 0 0-1.961-1.82c-1.063-.718-2.143-1.078-3.242-1.078-1.288 0-2.221.417-2.8 1.25-.577.836-.894 1.828-.951 2.986-1.441-1.25-2.672-2.18-3.694-2.785-1.726-1.026-3.367-1.535-4.918-1.535-1.63 0-3.043.572-4.237 1.719-1.194 1.145-1.791 2.6-1.791 4.362 0 2.748 1.376 5.04 4.123 6.879" fill="#000000"/><path d="M87.776 106.796v-44.62c0-14.468-10.408-26.94-24.75-29.653a31.78 31.78 0 0 0-5.742-.52h-.028c-16.782.03-30.435 13.566-30.435 30.174v44.619zm-36.208 6.266a8.139 8.139 0 0 0 5.688 2.29 8.143 8.143 0 0 0 5.677-2.29 8.038 8.038 0 0 0 2.47-5.376H49.107a8.043 8.043 0 0 0 2.461 5.376m-4.683-3.27c-.039.1-.897 2.269-2.54 3.154.34.09.718.135 1.133.135a6.66 6.66 0 0 0 1.646-.215l.704-.204-.543.492c-.012.014-1.333 1.223-1.525 2.339-.096.663-.577 1.199-1.007 1.557.452-.016.993-.131 1.248-.544.837-1.375 2.77-1.415 2.987-1.415h1.048l-.289.29-.436.436c-.038.038-.936.952-.936 2.258 0 .226.054.472.143.755.571-.794 1.448-1.685 2.633-1.964l.2-.056.143-.041.058.138.087.202c.093.17.245.659.245 1.228 0 .482-.119 1.176-.687 1.744-.287.287-.415.562-.415.895 0 .309.104.638.31.98.16-.525.513-1.273 1.277-1.626 1.163-.543 1.605-1.798 1.61-1.81l.213-.623.114.649c.004.018.282 1.579.75 2.72.351-1.317 1.05-2.311 2.08-2.957l.041-.026h.026l.333-.231.266-.185V118.685c0 .013.03 1.467 1.162 2.115.507.292.906.715 1.19 1.259.067-.4.122-.871.122-1.344 0-1.415-.497-2.377-.5-2.386l-.348-.604-.225-.393.43.148.666.232c.018.005 1.81.647 2.68 2.253.055-.3.083-.594.083-.902 0-.533-.21-1.85-.212-1.863l-.087-.544.38.4c.01.014 1.29 1.358 2.437 1.548.547.102 1.072.44 1.568 1.009-.029-.61-.209-1.008-.554-1.22-1.427-.868-1.444-2.9-1.444-2.986v-1.002l.286.269.465.434c.011.013.93.885 2.235.885.266 0 .534-.037.796-.111-.606-.41-1.67-1.291-1.978-2.583l-.058-.23-.036-.14.134-.058.203-.086a3.426 3.426 0 0 1 1.222-.223c.717 0 1.314.232 1.774.692.301.27.58.388.928.388.305 0 .655-.105.985-.29-.834-.262-1.392-.69-1.66-1.267-.538-1.128-1.894-1.484-1.908-1.488l-.75-.19.76-.142c.02-.002 1.532-.287 2.777-.8-1.205-.293-2.14-.89-2.786-1.78h-2.244a8.89 8.89 0 0 1-2.732 5.992 9.042 9.042 0 0 1-6.307 2.538 9.07 9.07 0 0 1-6.319-2.538 8.808 8.808 0 0 1-2.723-5.991h-2.389c-.009 0-1.579.11-2.258 1.279-.292.488-.722.875-1.278 1.158a8.27 8.27 0 0 0 1.363.124c1.455 0 2.991-.665 3.006-.672l.374-.164zM35.118 40.249a31.357 31.357 0 0 1 9.96-6.653 31.439 31.439 0 0 1 12.177-2.454h.03c2.06 0 4.053.187 5.922.555 14.736 2.77 25.431 15.59 25.431 30.48v45.509H69.694c1.117 1.026 2.664 1.08 2.984 1.08h.034l.811-.027.527-.018-.417.323-.638.494c-.702.526-1.582.885-2.622 1.07.346.284.637.649.87 1.094l.002.004.001.004c.393.862 1.926.974 1.942.975h.01l.58.059.374.036-.274.256-.436.406c-.078.076-1.119 1.062-2.32 1.062a2.104 2.104 0 0 1-1.54-.631c-.292-.303-.68-.455-1.154-.455a2.49 2.49 0 0 0-.475.049c.544 1.295 2.125 2.099 2.142 2.106l.438.234.256.136-.243.158-.406.26-.004.003-.005.003a3.935 3.935 0 0 1-1.932.519 4.168 4.168 0 0 1-2.025-.546c.118.447.36.996.858 1.3.643.412.981 1.154.981 2.147 0 .418-.066.985-.15 1.202l-.174.697-.115.457-.203-.427-.319-.666c-.248-.495-.907-1.467-1.615-1.588-.592-.1-1.106-.395-1.499-.697.01.1.014.199.014.298a5.768 5.768 0 0 1-.594 2.477l-.004.006-.407.786-.264.506-.057-.568-.086-.871c-.132-1.097-.875-1.852-1.595-2.334.098.386.193.939.193 1.65 0 1.613-.716 3.289-.747 3.36l-.212.49-.11-.522c-.004-.02-.398-1.834-1.534-2.484a3.093 3.093 0 0 1-1.442-1.953 1.628 1.628 0 0 1-.038-.103c-1.254 1.206-1.34 3.052-1.34 3.072v1.254l-.306-.4-.462-.606c-.542-.652-.91-1.512-1.1-2.563a2.963 2.963 0 0 1-1.105.843c-.483.234-.815.85-.983 1.83a1 1 0 0 1-.02.099l-.028.563-.019.382-.27-.27-.407-.406c-.232-.195-1.095-1.21-1.095-2.325 0-.558.218-1.07.63-1.483.303-.302.444-.67.444-1.156 0-.186-.013-.357-.036-.497-.768.334-1.512 1.073-2.113 2.1l-.03.05-.227.428-.145.27-.152-.265-.233-.406c-.367-.65-.545-1.284-.545-1.942 0-.66.184-1.326.55-1.986-.429.115-1.005.358-1.308.857-.397.643-1.143.982-2.157.982a4.893 4.893 0 0 1-1.224-.154l-.72-.172-.468-.111.435-.207.666-.32c.507-.235 1.494-.875 1.618-1.614.084-.487.331-.986.733-1.49a4.54 4.54 0 0 1-.37.016c-1.267 0-2.32-.486-2.483-.583l-.747-.375-.49-.244.541-.075.843-.116c1.174-.14 1.952-.924 2.398-1.556-.406.093-.98.183-1.678.183h-.119c-1.595 0-3.07-.54-3.132-.563l-.467-.172.475-.15c.017-.004 1.717-.546 2.4-1.693.18-.323.424-.607.73-.846H25.931V62.176c0-4.182.83-8.244 2.467-12.07a30.981 30.981 0 0 1 6.72-9.857" fill="#000000"/><path d="M88.469 39.285h-4.201c-.088.006-.15.032-.19.082-.071.086-.067.234-.062.27v.023c0 .06.027.39.528.82.616.534 1.668.995 3.125 1.371 2.064.516 4.895.796 8.418.834-.493-1.028-1.878-4.025-1.943-4.165l-.032-.07.032-.072s1.313-2.865 1.797-3.917c-.211.013-.48.022-.8.022-1.097 0-2.718-.116-4.297-.659-.235.858-1.042 4.076-1.195 4.693h-.001c-.046.18-.33.768-1.18.768m-4.207-.862c.02.001 1.793.01 3.024.01.972 0 1.139-.006 1.166-.009.06-.006.206-.046.268-.074a.379.379 0 0 0 .09-.068.797.797 0 0 0 .012-.14c-.044-.24-.202-.456-.482-.66-.26-.188-2.374-1.473-3.431-2.053-.074.36-.205.95-.341 1.567-.11.493-.223 1-.314 1.428h.008M25.62 37a.048.048 0 0 0 .005.018c.105-.105.198-.175.248-.214l.022-.017.008-.007.013-.01c.19-.132.385-.259.572-.38.184-.12.374-.246.56-.374l.003-.003.003-.002c.797-.498 1.643-.956 2.46-1.4l.42-.23.007-.002.005-.003.315-.143c6.022-3.069 12.54-5.075 19.372-5.962a58.276 58.276 0 0 1 7.693-.508c6 0 11.976.904 17.762 2.69 3.35 1.026 6.51 2.298 9.392 3.78l.316.143.006.003.007.004c.108.06 2.642 1.495 2.906 1.658.416.25.66.42 1.035.677l.075.051.004.003.002.002c.13.1.225.18.305.255.499-1.927 1.976-7.658 2.038-7.899l.024-.153c-.008-.3-.346-.598-.476-.688l-.007-.004-.005-.005a22.19 22.19 0 0 0-3.167-2.16 53.974 53.974 0 0 0-3.356-1.764c-5.546-2.717-11.697-4.536-18.281-5.407a66.908 66.908 0 0 0-8.54-.548c-5.375 0-10.68.651-15.763 1.936-5.284 1.343-10.12 3.3-14.372 5.812l-.205.117c-1.046.627-2.062 1.254-2.965 1.985l-.004.003-.003.002c-.233.171-.607.503-.491.822l.002.007.002.007 1.943 7.51c.043.144.078.28.11.398m1.615-.063l-.085.056c-.058.037-.12.073-.181.111-.436.263-.976.59-1.02 1.04a1.405 1.405 0 0 0-.001.18c.009.04.152.098.355.098h3.989c.044.001.147.003.192.01h.009a302.54 302.54 0 0 0-.65-3.006c-.795.435-1.706.948-2.608 1.511m-6.637 1.438l.034.073-.034.071c-.017.035-1.47 3.131-1.948 4.166 3.547-.039 6.39-.319 8.453-.835 3.21-.83 3.602-1.958 3.64-2.304-.004-.069-.027-.172-.062-.206-.032-.035-.13-.044-.183-.05-.023 0-.044-.004-.063-.006h-4.132c-.86 0-1.134-.58-1.178-.765h-.001c-.044-.167-1.002-3.764-1.235-4.693-1.662.57-3.397.656-4.3.656-.32 0-.585-.009-.792-.022a317.004 317.004 0 0 0 1.8 3.915m74.468.072c.279.611 2.239 4.814 2.26 4.86l.112.241h-.673c-3.811 0-6.9-.284-9.178-.846-4.017-.959-4.451-2.544-4.451-3.182v-.076l.004-.018.958-4.426c-5.896-2.987-12.297-4.963-19.033-5.87a57.794 57.794 0 0 0-7.631-.506c-5.96 0-11.898.901-17.648 2.676a62.969 62.969 0 0 0-9.14 3.7l.959 4.426.004.018v.076c0 .64-.432 2.228-4.423 3.182-2.28.562-5.386.846-9.236.846h-.673l.112-.242c.022-.045 1.984-4.252 2.26-4.859-.268-.6-2.124-4.673-2.143-4.716l-.127-.276.302.037.463.06h.018c.403.037.886.06 1.36.06 1.089 0 2.676-.11 4.142-.612l-.945-3.67c-.224-.684.24-1.397.817-1.754.44-.365.918-.689 1.38-1.003l.277-.189a24.58 24.58 0 0 1 1.87-1.14A56.56 56.56 0 0 1 30 23.677c5.577-2.747 11.714-4.598 18.24-5.5a66.42 66.42 0 0 1 9.179-.636c5.2 0 10.35.605 15.31 1.8 5.52 1.35 10.56 3.337 14.984 5.905l.004.004.005.003.083.055c1.096.642 2.353 1.4 3.413 2.276.693.55.978 1.197.777 1.776l-.944 3.642c1.467.501 3.057.61 4.149.61.469 0 .927-.019 1.36-.058.019 0 .032-.002.032-.002l.47-.059.305-.037-.13.276c-.018.044-1.9 4.114-2.171 4.716M39.612 100.49c.216-.17.457-.3.716-.383a2.67 2.67 0 0 1 .835-.128c.244 0 .505.029.775.087.269.056.55.143.836.258l.036.014.026.963-.1-.076a2.922 2.922 0 0 0-.715-.41 2.059 2.059 0 0 0-.721-.132c-.49 0-.883.155-1.173.463-.291.307-.44.727-.44 1.249 0 .559.153 1.007.45 1.333.298.324.704.49 1.208.49.238 0 .468-.036.684-.102.215-.066.414-.166.59-.292l.095-.07.007.996-.046.012c-.21.05-.411.09-.604.116a4.01 4.01 0 0 1-.553.04c-.376 0-.724-.051-1.04-.151a2.606 2.606 0 0 1-.847-.455 2.337 2.337 0 0 1-.673-.852 2.596 2.596 0 0 1-.23-1.09c0-.384.077-.742.228-1.063a2.22 2.22 0 0 1 .656-.816M44.233 102.556c0 .49.138.896.412 1.205.273.306.626.462 1.051.462.264 0 .51-.065.73-.194.22-.128.41-.317.565-.564.102-.16.18-.344.235-.542.054-.2.081-.413.081-.635 0-.478-.139-.872-.413-1.172a1.37 1.37 0 0 0-1.055-.452c-.25 0-.483.06-.696.175-.215.115-.396.28-.539.49a2.127 2.127 0 0 0-.37 1.227m-.075-2.017c.228-.183.48-.324.75-.419.268-.094.554-.142.847-.142a2.454 2.454 0 0 1 1.669.631c.256.23.454.508.586.824.134.317.202.666.202 1.035 0 .353-.064.685-.19.99a2.379 2.379 0 0 1-.554.807 2.35 2.35 0 0 1-.753.48 2.658 2.658 0 0 1-1.983-.064 2.478 2.478 0 0 1-.867-.646 2.297 2.297 0 0 1-.423-.722 2.528 2.528 0 0 1-.139-.85c0-.394.074-.76.22-1.088.146-.33.36-.61.635-.836M48.934 101.308c0-.235-.017-.454-.05-.65a2.881 2.881 0 0 0-.15-.556l-.031-.081h1.229l-.033.082a2.574 2.574 0 0 0-.148.546 4.081 4.081 0 0 0-.05.659v1.831l1.89-2.6a.948.948 0 0 0 .114-.212 1.21 1.21 0 0 0 .062-.254l.006-.052h1.097l-.018.075c-.036.145-.062.31-.08.495a7.017 7.017 0 0 0-.025.662v2.32c0 .236.017.456.05.653.033.196.083.382.15.553l.032.081h-1.231l.034-.083c.068-.168.118-.35.149-.542.032-.196.047-.418.047-.662v-2.164l-2.041 2.845a1 1 0 0 1-.043.058c-.13.18-.197.333-.197.457v.091h-1.391l.628-.76zM56.318 102.556c0 .49.14.896.412 1.205.273.306.626.462 1.05.462.264 0 .51-.065.73-.194.22-.128.41-.317.566-.564.1-.16.18-.344.235-.542.054-.2.08-.413.08-.635 0-.478-.138-.872-.412-1.172a1.37 1.37 0 0 0-1.055-.452c-.25 0-.483.06-.696.175-.215.115-.396.28-.54.49a2.127 2.127 0 0 0-.37 1.227m-.074-2.017c.229-.183.48-.324.75-.419.269-.094.554-.142.847-.142a2.47 2.47 0 0 1 1.67.631c.255.23.453.508.585.824.134.317.202.666.202 1.035 0 .353-.064.685-.191.99a2.407 2.407 0 0 1-.553.807 2.35 2.35 0 0 1-.753.48 2.467 2.467 0 0 1-.896.161c-.386 0-.753-.077-1.087-.226a2.478 2.478 0 0 1-.867-.645 2.278 2.278 0 0 1-.423-.722 2.536 2.536 0 0 1-.14-.85c0-.394.075-.76.22-1.088.147-.33.36-.61.636-.836M62.574 102.8c-.173-.158-.415-.262-.717-.312v1.806c.299-.01.539-.09.715-.237.186-.156.276-.36.276-.626a.805.805 0 0 0-.274-.63m-1.605 1.424c.032-.195.049-.415.049-.653v-2.265c0-.235-.017-.453-.05-.649a2.83 2.83 0 0 0-.15-.556l-.031-.082h1.305l-.032.083c-.07.172-.12.36-.154.555a4.07 4.07 0 0 0-.05.65v.757a17.37 17.37 0 0 1 1.08-1.436c.464-.539.627-.609.718-.609h.84l-.096.103c-.312.326-.608.674-.881 1.032-.258.34-.502.695-.727 1.06.288.108.514.262.672.456.172.21.258.463.258.753 0 .481-.174.846-.52 1.084-.336.234-.855.352-1.541.352h-.872l.03-.082c.069-.173.12-.359.152-.553M65.647 100.582v3.696c.518-.073.94-.276 1.25-.603.324-.338.488-.764.488-1.268 0-.353-.089-.678-.265-.966a1.787 1.787 0 0 0-.727-.672 1.634 1.634 0 0 0-.746-.187m-.888 3.643a3.96 3.96 0 0 0 .05-.652v-2.266c0-.234-.017-.453-.05-.649a2.765 2.765 0 0 0-.15-.555l-.032-.082h.897c.392 0 .722.026.981.076.26.052.496.134.701.247.37.205.66.495.866.861a2.5 2.5 0 0 1 .308 1.237c0 .484-.138.927-.408 1.32-.269.39-.638.681-1.098.866-.205.08-.437.14-.687.177-.25.036-.557.055-.919.055h-.64l.03-.083a2.7 2.7 0 0 0 .151-.552M68.995 104.225c.033-.194.049-.414.049-.651v-2.267c0-.235-.016-.453-.05-.648a2.953 2.953 0 0 0-.15-.558l-.032-.08h2.59l.436.952-.141-.058a4.352 4.352 0 0 0-1.688-.333c-.02 0-.05 0-.09.003l-.036.001v1.595c.204-.017.382-.04.532-.077.164-.037.304-.085.416-.143l.049-.026.516.823h-1.513v1.51c.258 0 .489-.023.686-.07.196-.047.369-.117.512-.21l.058-.037.439.908h-2.766l.033-.08c.067-.174.117-.36.15-.554M72.348 101.308c0-.235-.017-.454-.05-.65a3.011 3.011 0 0 0-.15-.556l-.031-.081h1.229l-.033.082a2.574 2.574 0 0 0-.148.546 4.064 4.064 0 0 0-.05.659v1.831l1.89-2.6a.912.912 0 0 0 .114-.212 1.21 1.21 0 0 0 .062-.254l.006-.052h1.097l-.018.075c-.036.143-.062.31-.08.495a7.017 7.017 0 0 0-.025.662v2.32c0 .236.017.456.049.653.034.196.084.382.152.553l.03.081h-1.23l.034-.083c.067-.168.118-.35.149-.542.032-.196.047-.418.047-.662v-2.164l-2.043 2.845a.568.568 0 0 1-.041.058c-.131.18-.197.333-.197.457v.091H71.72l.628-.76zM82.519 93.436c.19.03.406.045.645.045h.899l1.783-1.023c.092-.054.195-.121.317-.202.119-.08.25-.171.393-.272l.094-.07v1.262l-.077-.025a.63.63 0 0 0-.058-.01.825.825 0 0 0-.327.033 1.151 1.151 0 0 0-.252.108l-1.057.589 1.094.614c.086.05.168.088.246.115a.622.622 0 0 0 .2.039.725.725 0 0 0 .157-.022l.074-.018v1.38l-.1-.093a3.884 3.884 0 0 0-.339-.277 4.616 4.616 0 0 0-.377-.246l-1.773-1.052h-.897c-.239 0-.456.015-.646.046-.188.03-.37.08-.536.146l-.082.033v-1.278l.082.032c.166.066.348.115.536.146M81.391 89.211c.147-.12.325-.207.525-.257.197-.049.506-.074.92-.074h2.551c.24 0 .458-.015.65-.046.187-.032.367-.08.531-.146l.082-.033v1.848l-.832.234.023-.099c.034-.136.06-.28.077-.429.018-.149.027-.308.027-.474v-.026h-2.78c-.377 0-.687.023-.92.066a1.43 1.43 0 0 0-.554.213 1.344 1.344 0 0 0-.295.29c-.092.12-.187.277-.28.463l-.089.178-.078-.632a.414.414 0 0 1-.009-.06v-.077c0-.179.04-.354.118-.517.08-.164.191-.306.333-.422M82.928 87.126l.001.001c.06.04.137.068.237.085.102.017.285.026.545.026h1.675c.241 0 .46-.015.65-.047.188-.03.368-.078.532-.143l.082-.03v1.274l-.082-.033a2.73 2.73 0 0 0-.532-.143 3.989 3.989 0 0 0-.65-.047h-1.878c-.23 0-.412-.013-.542-.04a1.352 1.352 0 0 1-.369-.132 1.196 1.196 0 0 1-.436-.41 1.932 1.932 0 0 1-.23-.485 1.744 1.744 0 0 1-.078-.509c0-.226.05-.462.145-.7.082-.206.202-.419.357-.635h-.454v-.972l.081.031c.165.063.346.113.536.143.19.032.408.047.646.047h2.222c.241 0 .46-.015.65-.047.188-.03.368-.08.532-.143l.082-.032v1.275l-.082-.032a2.693 2.693 0 0 0-.532-.144 4.111 4.111 0 0 0-.65-.046h-1.609c-.31 0-.53.021-.653.061a.776.776 0 0 0-.314.201 1.122 1.122 0 0 0-.192 1.271c.074.151.178.27.31.355M85.252 83.707c-.271 0-.505-.066-.694-.197-.186-.128-.381-.364-.583-.702a7.607 7.607 0 0 0-.082-.144c-.27-.469-.538-.707-.8-.707a.492.492 0 0 0-.384.162.613.613 0 0 0-.151.431c0 .185.049.35.145.492.095.145.24.269.43.37l.202.108-1.324.029-.014-.041a2.602 2.602 0 0 1-.104-.398 2.183 2.183 0 0 1-.034-.381c0-.517.122-.928.363-1.222.244-.297.584-.446 1.012-.446.17 0 .33.026.474.082.143.055.27.14.375.248.128.133.283.35.453.645.026.045.047.079.057.1.18.306.328.505.437.591a.572.572 0 0 0 .368.126.546.546 0 0 0 .42-.17.635.635 0 0 0 .163-.455.927.927 0 0 0-.09-.407.938.938 0 0 0-.262-.322l-.124-.102 1.01-.037.015.041c.055.148.097.294.124.433.027.14.04.276.04.406 0 .411-.14.761-.416 1.043a1.394 1.394 0 0 1-1.026.424M86.026 77.09a3.824 3.824 0 0 0-.64-.048h-2.222c-.23 0-.445.015-.637.048-.19.032-.374.081-.545.147l-.082.032v-1.284l.083.032c.17.07.353.12.544.152.192.032.407.047.637.047h2.222c.232 0 .448-.015.64-.047.191-.033.374-.083.542-.152l.082-.032v4.865l-.96.251.058-.118c.084-.172.15-.375.193-.602.041-.212.068-.47.08-.767h-2.857c-.23 0-.445.018-.637.05-.19.032-.374.081-.545.147l-.082.031v-1.279l.082.03c.171.068.355.117.545.15.192.032.407.047.637.047h2.858a3.299 3.299 0 0 0-.064-.642 1.72 1.72 0 0 0-.196-.516l-.037-.06.857-.33-.013-.005a2.78 2.78 0 0 0-.543-.147M86.111 74.791a2.268 2.268 0 0 1-.836.66c-.326.15-.685.225-1.069.225-.377 0-.729-.075-1.044-.223a2.185 2.185 0 0 1-.8-.644 2.245 2.245 0 0 1-.377-.703 2.602 2.602 0 0 1-.127-.819c0-.239.03-.495.086-.76a5.01 5.01 0 0 1 .253-.822l.015-.036.947-.026-.076.1c-.18.236-.314.472-.4.703a1.975 1.975 0 0 0-.13.706c0 .48.151.866.453 1.151.301.285.713.43 1.225.43.547 0 .987-.149 1.306-.442.318-.29.48-.689.48-1.184a2.24 2.24 0 0 0-.1-.67 1.954 1.954 0 0 0-.287-.578l-.067-.094.978-.008.012.046c.05.204.09.404.115.592.026.188.038.371.038.543 0 .368-.05.712-.148 1.02-.1.31-.25.59-.447.833M85.098 67.664l-1.109-.468v.978zM82.5 69.793c-.13.08-.255.163-.376.251.133.044.27.078.405.101.192.032.406.049.636.049h2.222c.233 0 .448-.017.641-.049.191-.032.373-.083.541-.15l.082-.034v1.285l-.082-.033a2.885 2.885 0 0 0-.54-.147 4.061 4.061 0 0 0-.642-.048h-2.222c-.23 0-.444.017-.636.048-.19.033-.374.082-.546.147l-.08.033v-1.155l-.027-.01.026-.02v-1.138l.067.009.074.006.053.001c.091 0 .192-.014.298-.042.106-.029.227-.075.361-.14l.577-.276V66.9l-.69-.298a1.79 1.79 0 0 0-.272-.101.89.89 0 0 0-.289-.018l-.11.013-.069.01v-1.375l.095.073c.197.147.378.273.538.376.162.102.313.185.45.247l3.843 1.785-3.708 1.842a7.562 7.562 0 0 0-.62.339M32.866 70.774c-.142.062-.298.132-.469.21l-.148.069.068-.147c.11-.236.2-.506.27-.8.065-.277.114-.59.146-.931h-2.98c-.236 0-.456.017-.652.05a2.731 2.731 0 0 0-.552.153l-.083.034v-1.306l.082.032c.173.067.36.117.553.15.196.033.414.05.652.05h2.265c.236 0 .454-.017.651-.05.193-.033.381-.083.555-.15l.081-.032v2.492l-.038.014a8.46 8.46 0 0 0-.4.162M32.668 72.224a4.07 4.07 0 0 0-.649-.049h-2.267c-.236 0-.454.017-.65.049a2.653 2.653 0 0 0-.554.154l-.082.032v-1.305l.082.031c.172.067.358.119.554.151.194.033.414.049.65.049h2.267c.234 0 .452-.016.65-.049.193-.032.38-.084.554-.151l.082-.031v1.305l-.082-.032a2.78 2.78 0 0 0-.555-.154M30.63 74.05h-1.594a.896.896 0 0 0 .204.562.643.643 0 0 0 .513.236.813.813 0 0 0 .586-.23c.146-.141.243-.332.29-.567m2.133.095v-.095h-1.866c.053.279.172.51.353.692.194.193.422.29.674.29.253 0 .45-.08.606-.242.154-.161.233-.38.233-.645m-.814 1.808c-.25 0-.486-.077-.696-.231a1.972 1.972 0 0 1-.51-.582 1.277 1.277 0 0 1-.396.428 1.106 1.106 0 0 1-.623.184c-.213 0-.415-.06-.595-.176a1.389 1.389 0 0 1-.456-.491 1.48 1.48 0 0 1-.156-.49 4.589 4.589 0 0 1-.05-.736v-.88l.082.033c.172.067.358.118.554.15.194.033.414.049.651.049h2.265c.235 0 .453-.016.65-.05.194-.031.381-.082.556-.15l.081-.031v1.058c0 .587-.12 1.056-.36 1.394a1.158 1.158 0 0 1-.997.52M32.411 79.299c.111-.273.196-.552.25-.83.056-.276.083-.566.083-.86 0-.018 0-.048-.002-.088v-.036h-1.596c.015.204.041.382.076.532.038.163.085.303.144.416l.025.048-.824.517v-1.513H29.06c0 .258.023.49.07.686.045.196.116.369.21.513l.035.057-.907.439v-2.765l.081.032c.173.067.36.118.554.15.195.032.414.049.651.049h2.266c.236 0 .454-.017.65-.05.194-.031.38-.082.554-.15l.082-.031v2.59l-.95.434zM29.27 81.503c.155.186.36.276.626.276a.806.806 0 0 0 .631-.274c.157-.172.261-.413.312-.717h-1.807c.012.299.091.539.238.715m2.902.946c-.34-.26-.696-.503-1.06-.726-.11.288-.262.512-.456.67a1.16 1.16 0 0 1-.753.259c-.482 0-.846-.175-1.084-.52-.234-.337-.353-.855-.353-1.54v-.874l.083.033c.172.067.358.117.553.149.195.033.415.05.651.05h2.267c.235 0 .453-.017.648-.05a2.84 2.84 0 0 0 .556-.15l.082-.032v1.306l-.082-.033a2.79 2.79 0 0 0-.556-.154 4.057 4.057 0 0 0-.648-.05h-.757c.592.41 1.074.773 1.434 1.082.54.462.609.626.609.717v.84l-.101-.096a12.164 12.164 0 0 0-1.033-.881M32.668 85.405a4.012 4.012 0 0 0-.648-.049h-2.916c.004.25.025.47.066.656.043.198.11.375.199.526l.038.061-.94.36v-3.702l.974-.254-.056.117a2.445 2.445 0 0 0-.198.614c-.042.217-.07.481-.08.783h2.913c.233 0 .452-.017.648-.049.195-.033.382-.084.556-.15l.08-.034v1.303l-.08-.032a2.86 2.86 0 0 0-.556-.15M31.18 89.252v-1l-1.135.522zm1.564 3.119h-3.695c.074.518.275.938.602 1.25.339.323.766.487 1.269.487.353 0 .677-.088.967-.264.288-.174.513-.42.67-.727a1.564 1.564 0 0 0 .187-.746m-.082-1.474a3.82 3.82 0 0 0-.458-.252l-3.916-1.818 3.778-1.876c.233-.116.446-.232.632-.347.186-.113.358-.232.512-.352l.096-.074v1.31l-.068-.008-.076-.008-.053-.001a1.24 1.24 0 0 0-.304.044c-.11.03-.233.078-.368.142l-.59.283v1.613l.705.303c.118.054.212.088.279.104a.89.89 0 0 0 .292.018c.038-.002.075-.008.114-.013l.069-.01V92.198c0 .39-.026.722-.077.98a2.407 2.407 0 0 1-.247.702c-.205.37-.494.66-.86.866a2.496 2.496 0 0 1-1.238.308c-.483 0-.927-.137-1.318-.407-.39-.27-.682-.64-.867-1.1a3.08 3.08 0 0 1-.177-.687 6.585 6.585 0 0 1-.054-.918V91.3l.08.032c.173.066.359.117.554.15.195.033.414.049.652.049h2.266c.235 0 .453-.016.648-.05.194-.032.382-.083.556-.15l.036-.014-.05-.038a8.656 8.656 0 0 0-.548-.383" fill="#000000"/><path d="M26.772 29.603a1.57 1.57 0 0 1 .208-.15c.245-.149.48-.224.698-.224.045 0 .09.004.134.011.258.037.465.183.615.432.06.1.1.203.116.306a.685.685 0 0 1-.013.31 2.268 2.268 0 0 1-.213.48l-.037.064c-.11.204-.172.35-.184.438a.353.353 0 0 0 .052.232.334.334 0 0 0 .22.167c.094.02.188.001.29-.059a.608.608 0 0 0 .19-.18.601.601 0 0 0 .09-.245l.024-.182.417.64-.03.04a1.979 1.979 0 0 1-.207.218 1.503 1.503 0 0 1-.22.165.97.97 0 0 1-.751.12.937.937 0 0 1-.604-.449.805.805 0 0 1-.128-.474c.009-.155.076-.344.204-.58l.05-.096c.17-.299.215-.523.13-.66a.291.291 0 0 0-.202-.15.372.372 0 0 0-.274.058.538.538 0 0 0-.218.236.732.732 0 0 0-.06.354l.013.261-.535-.849.032-.038c.063-.073.127-.139.193-.196M30.367 29.938l-.06-.683-.492.26zm-2.02-.772a3.307 3.307 0 0 0-.352-.183l-.126-.06.831-.437.027.072.016.043.016.03a.674.674 0 0 0 .113.154c.05.053.112.109.188.164l.325.24.886-.47-.037-.474a.98.98 0 0 0-.025-.185.463.463 0 0 0-.073-.164l-.04-.06-.048-.063.881-.466-.003.013.777-.357.005.1c.007.116.026.235.06.355.032.12.082.253.147.395l.454.994.392-1.947a.55.55 0 0 0 .01-.147.72.72 0 0 0-.032-.16l-.018-.056.702-.322.017.085c.016.093.046.197.085.308.04.113.094.246.163.394l.624 1.362c.063.136.132.26.202.365.07.104.15.198.233.28l.071.068-.8.367-.005-.1a1.574 1.574 0 0 0-.057-.352 2.796 2.796 0 0 0-.148-.397l-.545-1.19-.415 2.134-.009.044c-.029.135-.027.237.004.304l.037.079-.899.414.177-.666-.747-1.63a2.68 2.68 0 0 0-.202-.364 1.847 1.847 0 0 0-.234-.28l-.053-.052-.015.094c-.026.16-.044.303-.054.427-.009.124-.01.236-.006.333l.148 2.846-2.262-1.626a4.664 4.664 0 0 0-.386-.256M36.72 27.833c.187-.076.311-.174.365-.294.056-.126.048-.291-.029-.493-.068-.181-.17-.297-.31-.354-.127-.052-.28-.052-.459 0zm-.826-2.542c0 .119.011.24.034.365.025.122.065.257.118.398l.142.376.071-.035a1.68 1.68 0 0 1 .134-.057c.3-.114.568-.123.798-.028.232.095.403.286.51.567a.93.93 0 0 1 .053.517.988.988 0 0 1-.247.463 1.044 1.044 0 0 1-.275.2c-.12.068-.27.134-.438.199l-.64.24.002-.1a1.753 1.753 0 0 0-.036-.36 2.457 2.457 0 0 0-.118-.401l-.517-1.368a2.601 2.601 0 0 0-.176-.377 1.955 1.955 0 0 0-.215-.296l-.066-.074.87-.33zM37.47 25.086a1.763 1.763 0 0 0-.204-.305l-.062-.076 1.642-.554.526.56-.172-.01a2.851 2.851 0 0 0-1.09.142l-.05.019.31.919c.108-.047.2-.094.279-.141.09-.055.164-.112.218-.17l.043-.044.548.448-.95.319.293.869c.145-.051.27-.11.372-.172.109-.067.197-.143.264-.227l.048-.061.51.522-1.776.599.005-.1a1.727 1.727 0 0 0-.022-.362 2.52 2.52 0 0 0-.103-.406l-.467-1.387a2.479 2.479 0 0 0-.162-.382M40.14 24.194l.651 2.23c.286-.137.495-.329.622-.573.134-.262.16-.55.07-.853a1.167 1.167 0 0 0-.33-.538 1.13 1.13 0 0 0-.806-.297 1.162 1.162 0 0 0-.208.031m-.042 1.994l-.41-1.405a2.491 2.491 0 0 0-.148-.389 1.743 1.743 0 0 0-.19-.313l-.06-.078.597-.175a3.49 3.49 0 0 1 .627-.13 1.564 1.564 0 0 1 .489.026c.272.061.51.191.706.384.196.192.338.436.422.724.09.305.086.61-.012.907-.099.297-.279.55-.535.751a2.024 2.024 0 0 1-.399.238 4.235 4.235 0 0 1-.563.203l-.44.128.01-.1c.01-.116.008-.238-.007-.363a2.455 2.455 0 0 0-.087-.408M43.4 25.718a.703.703 0 0 0 .366-.24.468.468 0 0 0 .071-.411.492.492 0 0 0-.255-.335.838.838 0 0 0-.447-.082zm-1.403-2.495L42.9 23l-.015.098a1.723 1.723 0 0 0-.008.367c.008.125.032.263.068.409l.095.385c.152-.4.294-.73.423-.984.211-.417.308-.491.374-.507l.593-.147-.079.138a8.358 8.358 0 0 0-.67 1.522c.187.027.345.088.47.183a.786.786 0 0 1 .291.448c.076.313.02.577-.166.787-.178.203-.49.36-.927.469l-.588.145.012-.098c.016-.117.02-.24.01-.365a2.393 2.393 0 0 0-.07-.412l-.35-1.42a2.563 2.563 0 0 0-.13-.394 1.773 1.773 0 0 0-.178-.321zM45.378 24.13c.06.303.195.536.4.693a.813.813 0 0 0 .509.176c.06 0 .125-.007.192-.019a.894.894 0 0 0 .424-.207c.12-.105.215-.246.28-.416.043-.113.07-.235.079-.366.009-.13 0-.266-.027-.403-.058-.296-.191-.522-.397-.674a.842.842 0 0 0-.702-.149.912.912 0 0 0-.678.558 1.361 1.361 0 0 0-.08.806m-.35-1.282a1.659 1.659 0 0 1 1.292-.598 1.618 1.618 0 0 1 .825.229c.193.116.356.27.483.458.126.187.214.402.26.64.046.228.046.451.003.663a1.528 1.528 0 0 1-.68.996 1.585 1.585 0 0 1-.558.22 1.737 1.737 0 0 1-.73-.009 1.641 1.641 0 0 1-.641-.305 1.508 1.508 0 0 1-.362-.412 1.623 1.623 0 0 1-.2-.533 1.727 1.727 0 0 1 .004-.727c.052-.233.155-.44.305-.622M50.857 21.518a2.908 2.908 0 0 1 .543-.016c.186.011.38.037.573.078l.068.014-.015.067a.987.987 0 0 0-.02.189c0 .07.004.15.016.238l.044.369c.015.124.037.231.065.32a.547.547 0 0 0 .09.182l.083.097-1.049.128.097-.128a.603.603 0 0 0 .11-.247 1.52 1.52 0 0 0-.009-.411l-.044-.354a1.771 1.771 0 0 0-.481-.005c-.326.039-.579.174-.753.4-.176.227-.245.509-.204.84.042.343.167.603.376.771.205.168.475.233.801.195.16-.02.313-.06.455-.121.14-.06.272-.138.39-.235l.094-.079.09.687-.05.019a4.09 4.09 0 0 1-.418.134 2.9 2.9 0 0 1-.404.077c-.239.03-.462.028-.665-.004a1.501 1.501 0 0 1-.543-.196 1.642 1.642 0 0 1-.784-1.235c-.059-.477.054-.88.335-1.199.277-.318.685-.512 1.21-.575M53.85 23.332l.22-.649-.557.04zm2.936.023a.495.495 0 0 0-.179-.38.846.846 0 0 0-.42-.176l.033 1.1a.683.683 0 0 0 .41-.158.466.466 0 0 0 .156-.386m-4.817-1.954l.937-.069-.004.077v.08a.778.778 0 0 0 .041.188c.023.065.06.142.108.224l.2.35 1-.072.158-.45c.027-.078.045-.139.051-.179a.49.49 0 0 0-.003-.18.57.57 0 0 0-.012-.07l-.018-.078.995-.073-.01.015.891-.028-.035.095a1.7 1.7 0 0 0-.086.356 2.582 2.582 0 0 0-.02.415l.013.394c.232-.355.441-.647.62-.87.294-.365.403-.416.473-.418l.61-.02-.007.008 1.991.02.323.878-.167-.1a1.747 1.747 0 0 0-.524-.21 3.288 3.288 0 0 0-.713-.073c-.044 0-.078 0-.106-.002l1.31 2.692-1.979-.02-.317-.896.172.12c.146.1.317.176.508.227a2.678 2.678 0 0 0 .71.08l-1.3-2.61-.007.005a8.059 8.059 0 0 0-.975 1.347c.178.067.32.16.421.278a.776.776 0 0 1 .188.5c.011.32-.099.568-.325.734-.218.162-.556.25-1.004.264l-.606.018.032-.094c.04-.11.07-.23.085-.354.017-.125.023-.266.02-.417l-.046-1.463a2.366 2.366 0 0 0-.044-.413 1.686 1.686 0 0 0-.106-.35l-.024-.057-.04.064a4.55 4.55 0 0 0-.22.37 2.602 2.602 0 0 0-.14.302l-1.01 2.665-1.417-2.399a4.256 4.256 0 0 0-.499-.699zM61.827 22.64l-.556-.031.255.646zm-1.918-1.542l.94.053-.016.076a.223.223 0 0 0-.006.045c0 .013-.003.023-.004.036a.746.746 0 0 0 .017.188c.014.07.04.149.077.238l.154.373 1.001.056.213-.426a1.19 1.19 0 0 0 .076-.171.502.502 0 0 0 .02-.179.59.59 0 0 0-.004-.072l-.008-.078.996.054-.088.104a5.096 5.096 0 0 0-.266.338 2.5 2.5 0 0 0-.178.283l-1.342 2.514-1.099-2.559a4.707 4.707 0 0 0-.198-.419 3.661 3.661 0 0 0-.206-.339zM64.977 21.866c.27-.185.599-.277.977-.277.108 0 .221.007.338.022.171.023.35.064.529.121.181.058.362.131.538.218l.06.03-.03.061a.937.937 0 0 0-.066.178 1.814 1.814 0 0 0-.046.235l-.049.37a1.713 1.713 0 0 0-.016.324.545.545 0 0 0 .04.198l.059.115-1.049-.137.125-.1a.562.562 0 0 0 .167-.212c.04-.087.072-.222.095-.4l.047-.353a2.104 2.104 0 0 0-.202-.07 1.473 1.473 0 0 0-.263-.055c-.325-.044-.604.024-.83.2-.226.176-.363.431-.406.762-.045.343.012.626.171.84.158.215.402.346.727.388.162.021.319.021.471-.002.151-.022.298-.066.436-.132l.112-.052-.086.686-.053.007c-.15.016-.297.027-.438.027a2.671 2.671 0 0 1-.409-.026 2.363 2.363 0 0 1-.643-.172 1.522 1.522 0 0 1-.478-.324 1.662 1.662 0 0 1-.388-.64 1.704 1.704 0 0 1-.063-.752c.062-.475.273-.839.623-1.078M69.112 23.551l-.546-.102.17.673zm2.19 1.68a.467.467 0 0 0 .252-.334.486.486 0 0 0-.075-.413.82.82 0 0 0-.359-.278l-.254 1.071c.17.03.316.013.436-.046m-2.969-3.283l-.025.074-.013.043-.006.035a.68.68 0 0 0-.009.19c.006.072.022.155.046.245l.105.391.986.184.266-.395c.058-.084.084-.135.096-.16a.486.486 0 0 0 .036-.115l.01-.06c0-.023.003-.048.004-.072l.003-.079.978.182-.014.015.868.205-.058.081a1.751 1.751 0 0 0-.176.322 2.551 2.551 0 0 0-.126.395l-.09.385c.316-.283.592-.51.823-.68.381-.276.5-.296.567-.28l.594.14-.133.086a8.174 8.174 0 0 0-1.292 1.047c.153.111.266.238.334.38a.784.784 0 0 1 .053.53c-.075.312-.245.523-.506.625-.252.098-.6.096-1.038-.007l-.59-.14.056-.083c.067-.097.126-.204.174-.319.05-.115.091-.25.127-.398l.336-1.424c.035-.145.058-.283.066-.41a1.938 1.938 0 0 0-.01-.367l-.01-.062-.056.052c-.118.107-.222.21-.306.301a2.504 2.504 0 0 0-.212.257l-1.655 2.32-.76-2.679a4.877 4.877 0 0 0-.143-.44 3.55 3.55 0 0 0-.16-.363l-.066-.125zM73.091 23.847a1.45 1.45 0 0 1 .565-.396c.166-.068.343-.107.523-.113l.057-.002c.16 0 .326.025.492.074.154.044.313.11.472.195.156.084.316.19.477.313l.035.027-.178.68-.084-.114a1.82 1.82 0 0 0-.365-.376 1.3 1.3 0 0 0-.414-.208c-.3-.086-.557-.062-.788.074-.229.136-.392.364-.483.68-.099.34-.086.638.04.886.121.247.337.417.642.505a1.347 1.347 0 0 0 .842-.014l.125-.045-.196.695-.054-.003a3.905 3.905 0 0 1-.398-.035 2.664 2.664 0 0 1-.354-.076 2.232 2.232 0 0 1-.626-.284 1.733 1.733 0 0 1-.453-.442 1.536 1.536 0 0 1-.269-.662 1.684 1.684 0 0 1 .054-.729c.07-.242.184-.454.338-.63M75.954 28.098l-.59-.195-.199-.93.387.127zM78.305 26.147l-.521-.195.05.692zm-2.91.363c.06-.11.114-.24.162-.385l.46-1.389c.046-.14.08-.277.1-.403.019-.124.025-.247.02-.366l-.005-.098.809.267-.01-.03.88.33-.034.066a.743.743 0 0 0-.075.26c-.006.072-.005.156.004.25l.036.401.94.351.33-.344c.059-.059.1-.107.122-.14a.499.499 0 0 0 .055-.108c.007-.016.012-.036.018-.059a.575.575 0 0 0 .018-.069l.017-.076.89.332a3.275 3.275 0 0 0-.015-.488l-.013-.114.413.173.008.032c.079.32.123.612.127.874.007.266-.027.51-.1.723l-.023.068-.698-.29.036-.068a2.295 2.295 0 0 0 .125-.246c.064-.153.108-.329.129-.52.004-.03.005-.065.008-.099l-.07.044a4.797 4.797 0 0 0-.354.245 2.562 2.562 0 0 0-.254.217l-2.028 2.001-.287-2.77a5.051 5.051 0 0 0-.066-.459 3.72 3.72 0 0 0-.097-.385l-.006-.022-.017.021a1.796 1.796 0 0 0-.205.304 2.644 2.644 0 0 0-.16.383l-.458 1.39c-.05.145-.083.281-.101.405a1.659 1.659 0 0 0-.018.363l.006.101-.884-.292.065-.077c.075-.09.142-.192.2-.304M82.256 27.18c.067-.133.121-.264.158-.384.036-.12.06-.24.072-.36l.01-.097.786.392-.075.068a1.675 1.675 0 0 0-.239.267 2.714 2.714 0 0 0-.216.364l-.488.976 1.763-.914a.586.586 0 0 0 .12-.086.755.755 0 0 0 .104-.124l.032-.05.692.346-.057.066a2.25 2.25 0 0 0-.186.26 4.55 4.55 0 0 0-.205.373l-.67 1.34a2.45 2.45 0 0 0-.157.386c-.038.12-.06.24-.073.358l-.009.098-.787-.394.075-.066c.085-.076.165-.165.238-.266a2.65 2.65 0 0 0 .217-.364l.584-1.17-1.92 1.012a.556.556 0 0 1-.04.022c-.125.062-.203.128-.235.194l-.04.079-.884-.442.63-.28zM85.708 28.75a.39.39 0 0 1-.303-.035.383.383 0 0 1-.188-.243.396.396 0 0 1 .035-.3.391.391 0 0 1 .354-.206c.066 0 .129.016.189.05.097.054.16.134.19.239a.392.392 0 0 1-.038.306.382.382 0 0 1-.239.189M85.197 30.855c.083-.095.166-.21.244-.338l.764-1.248c.077-.128.14-.252.189-.372.046-.116.08-.233.103-.351l.018-.097 1.427.872-.01.047a5.708 5.708 0 0 0-.046.274l-.041.328-.021.184L87.72 30a2.6 2.6 0 0 0-.345-.412 4.345 4.345 0 0 0-.436-.373l-.987 1.615a2.573 2.573 0 0 0-.19.372 1.6 1.6 0 0 0-.1.348l-.016.1-.794-.484.079-.061c.095-.071.183-.155.265-.25M88.346 29.702a.39.39 0 0 1 .299.061.397.397 0 0 1 .103.557.388.388 0 0 1-.254.167.39.39 0 0 1-.3-.06.373.373 0 0 1-.164-.259.382.382 0 0 1 .059-.296.39.39 0 0 1 .257-.17M43.45 41.476l.488-.312-1.15-1.802a3.442 3.442 0 0 0-.333-.447 2.595 2.595 0 0 0-.366-.334l-.071-.051.954-.608.015.087c.03.154.079.309.146.464.068.154.158.32.27.497l1.729 2.713zM48.062 39.123l.582.604-2.219 1.028-.011-.08a1.936 1.936 0 0 0-.063-.27 2.725 2.725 0 0 0-.12-.306l-.692-1.494.077-.012a2.22 2.22 0 0 0 .521-.156c.256-.117.428-.266.514-.442.085-.173.081-.357-.013-.56a.694.694 0 0 0-.377-.377.635.635 0 0 0-.518.03.867.867 0 0 0-.507.766v.127l-.742-.601.024-.044a1.43 1.43 0 0 1 .343-.421c.144-.125.319-.236.52-.327.256-.12.504-.178.74-.178.136 0 .268.019.396.057.353.109.616.349.785.715.156.334.17.648.043.936-.125.284-.378.517-.751.689-.063.029-.113.05-.146.064a.45.45 0 0 1-.033.013l.469 1.01.097-.043c.338-.157.589-.288.745-.388.15-.097.25-.187.296-.27zM49.63 38.529a.545.545 0 0 0 .275.072c.064 0 .133-.01.205-.033a.632.632 0 0 0 .388-.3.572.572 0 0 0 .038-.47.683.683 0 0 0-.322-.414.622.622 0 0 0-.507-.04.572.572 0 0 0-.363.294.645.645 0 0 0-.021.489.67.67 0 0 0 .308.402m.737.669h-.002a1.377 1.377 0 0 1-1.08-.077 1.347 1.347 0 0 1-.685-.827c-.106-.34-.088-.65.054-.92.143-.272.384-.463.719-.568a1.25 1.25 0 0 1 .178-.042c.015-.003.029-.006.043-.007l-.672-.593a4.73 4.73 0 0 0-.815-.576l-.123-.07 1.194-.373.01.07c.003.019.005.038.01.058a.6.6 0 0 0 .02.073c.05.157.265.397.64.715l.248.216c.634.544.996.976 1.104 1.32.113.36.09.69-.065.986-.155.295-.418.502-.778.615M52.911 36.233a.565.565 0 0 0 .4-.25.637.637 0 0 0 .084-.488.648.648 0 0 0-.253-.44.59.59 0 0 0-.473-.101.643.643 0 0 0-.43.25.58.58 0 0 0-.099.469c.036.2.124.348.27.454.11.079.23.119.364.119.044 0 .09-.005.137-.013m.453 2.144a.88.88 0 0 0-.132-.29 3.58 3.58 0 0 0-.368-.42l-.41-.408c-.35-.35-.59-.601-.708-.746a1.501 1.501 0 0 1-.32-.687 1.269 1.269 0 0 1 .218-.991c.21-.291.504-.472.875-.538a1.441 1.441 0 0 1 .56.012 1.37 1.37 0 0 1 .864.606c.091.145.151.305.182.478a1.24 1.24 0 0 1-.186.937 1.149 1.149 0 0 1-.787.507c-.034.006-.085.01-.15.018l.586.578c.16.157.312.295.455.41.14.115.277.213.41.292l.136.083-1.213.215zM57.855 35.738a.952.952 0 0 0-.202-.015h-.783c-.073 0-.14.005-.202.016a1.05 1.05 0 0 0-.172.05l-.083.033v-.838l.083.033a.96.96 0 0 0 .373.066h.783a.919.919 0 0 0 .378-.066l.081-.033v.838l-.081-.034a.815.815 0 0 0-.176-.05M62.309 34.97a3.614 3.614 0 0 0-.147.548l-.613 3.157-1.077-1.308.568.11.407-2.097c.039-.201.06-.388.065-.556a2.483 2.483 0 0 0-.036-.494l-.016-.086 1.11.216-.048.074a2.18 2.18 0 0 0-.213.436M64.03 38.396c.07.135.184.23.349.287a.63.63 0 0 0 .202.036.441.441 0 0 0 .21-.052c.12-.064.21-.184.269-.353a.561.561 0 0 0-.005-.429.496.496 0 0 0-.31-.267.576.576 0 0 0-.45.017.536.536 0 0 0-.288.328.537.537 0 0 0 .023.433m.527-1.686c.07.14.189.234.359.294.093.033.18.048.263.048.082 0 .16-.015.232-.047a.532.532 0 0 0 .302-.338.559.559 0 0 0-.024-.458.615.615 0 0 0-.368-.3.611.611 0 0 0-.481.02.569.569 0 0 0-.307.343.528.528 0 0 0 .024.438m1.478.741a.969.969 0 0 1-.465.217.967.967 0 0 1 .154.392c.027.171.009.352-.054.534a1.1 1.1 0 0 1-.59.67c-.282.131-.592.14-.922.026a1.242 1.242 0 0 1-.73-.61 1.132 1.132 0 0 1-.064-.919.984.984 0 0 1 .267-.414c.1-.094.229-.169.38-.224a1.255 1.255 0 0 1-.205-.505 1.314 1.314 0 0 1 .066-.63c.118-.34.33-.584.635-.719a1.19 1.19 0 0 1 .502-.108c.159 0 .326.03.498.088.37.128.64.35.806.66a1.2 1.2 0 0 1 .07.99 1.256 1.256 0 0 1-.348.552M66.972 39.572a.57.57 0 0 0 .308.33.494.494 0 0 0 .41.038c.129-.047.233-.152.313-.312a.57.57 0 0 0 .052-.427.498.498 0 0 0-.272-.306.58.58 0 0 0-.446-.043.535.535 0 0 0-.331.288.53.53 0 0 0-.034.432m.744-1.6a.6.6 0 0 0 .318.338.751.751 0 0 0 .336.086.534.534 0 0 0 .497-.316.562.562 0 0 0 .038-.456.61.61 0 0 0-.326-.347.616.616 0 0 0-.48-.045.564.564 0 0 0-.35.302.53.53 0 0 0-.033.437m1.367.928a.965.965 0 0 1-.488.155.971.971 0 0 1 .1.408c.005.175-.038.351-.123.522a1.105 1.105 0 0 1-.674.587c-.297.093-.606.061-.917-.096a1.242 1.242 0 0 1-.642-.7 1.123 1.123 0 0 1 .057-.919.975.975 0 0 1 .318-.377c.112-.078.249-.136.408-.172a1.222 1.222 0 0 1-.137-.526 1.303 1.303 0 0 1 .147-.617c.162-.322.405-.534.724-.63.114-.033.23-.05.347-.05.21 0 .427.054.646.164.35.174.59.43.714.76.122.33.102.663-.061.99a1.258 1.258 0 0 1-.42.501M72.62 39.98c-.082-.147-.234-.32-.454-.515a9.572 9.572 0 0 0-.837-.644l.013.235.008.14c.083 1.411.018 2.247-.196 2.557a1.01 1.01 0 0 1-.733.456c-.303.038-.605-.046-.903-.25a1.211 1.211 0 0 1-.522-.759 1.083 1.083 0 0 1 .222-.929.48.48 0 0 1 .032-.039l.018-.019.855.043-.12.098c-.05.042-.095.086-.138.132-.04.044-.075.086-.105.13a.593.593 0 0 0-.118.423.486.486 0 0 0 .223.34c.137.095.265.135.38.12.116-.016.213-.083.298-.207.117-.169.182-.514.195-1.025.013-.52-.034-1.388-.14-2.577l-.011-.126 2.578 1.78-.498.72zM52.736 78.804c-.01-.002-.022-.008-.044-.017-.717-.282-2.547-.845-4.048.013-.32.174-.637.3-.972.382-.836 1.581-.536 2.878-.26 3.543a1.44 1.44 0 0 1 1.343.357.889.889 0 0 1 .938-.19c.34.131.55.437.553.803.972.088 1.772.82 1.914 1.765.148.978-.454 1.937-1.406 2.26l.04.138.003.02c0 .477-.416.88-.91.88l-.154-.042c-.12.432-.425.777-.848.954l-.13.048a1.5 1.5 0 0 1-1.324-.21.814.814 0 0 1-1.118.081.466.466 0 0 1-.141-.12c-.385.446-.966.63-1.535.48a1.448 1.448 0 0 1-1.07-1.15c-.15.024-.283.046-.293.046-1.153 0-2.127-.96-2.127-2.099l.016-.093a.825.825 0 0 1-.617-.636.858.858 0 0 1 .316-.854 1.438 1.438 0 0 1 .175-1.76 1.447 1.447 0 0 1 1.734-.349.881.881 0 0 1 .68-.56.87.87 0 0 1 .809.285c.215-.255.5-.427.833-.499.209-.738.287-1.887-.474-3.245l-.64-.23a.297.297 0 0 1-.05-.019c-.681-.299-2.438-.892-3.985.013-1.56.877-3.353.533-4.216.28v10.467c.51.442 1.712 1.47 2.8 2.34.878.707 2.05.998 2.988.742.829-.23 1.449-.842 1.84-1.817l.022-.052.4.08v.056c0 .016.024 1.788 2.137 1.788.138 0 .28 0 .394-.028 1.78-.31 2.288-2.639 2.292-2.663l.01-.052.374-.014h.049l.018.045.005.016c.044.133 1.017 2.841 3.383 2.841 2.349 0 2.732-2.004 2.747-2.09l.007-.036 1.747-.794v-10.86c-1.985.764-4.07-.18-4.205-.244m0-1.333l-.044-.018c-.717-.282-2.547-.846-4.05.014a4.31 4.31 0 0 1-.86.333c.296.051.417.226.458.31l.039.112-.041.084-.008.012c-.062.08-.121.161-.181.248a2.46 2.46 0 0 0 .356-.176c1.183-.66 2.762-.67 4.449-.03l.064.023c.01.003.024.007.054.021.689.271 2.425.815 3.969.158v-.883c-1.996.824-4.076-.146-4.205-.208m-13.034.92c1.767-.996 3.685-.347 4.428-.02a.246.246 0 0 0 .038.015l.042.015a1.927 1.927 0 0 0-.057-.078l-.093-.093.025-.045c.004-.006.344-.602 1.272-.284.004-.014.01-.026.017-.039a7.045 7.045 0 0 1-1.324-.366c-.024-.009-.044-.017-.056-.02l-.015.006-.02-.02c-.02-.013-2.142-1.094-4.015.003-1.518.854-3.338.54-4.216.305v.822c.71.224 2.52.65 3.974-.202m7.027 4.632a1.5 1.5 0 0 1 .282-.168c-.172-.384-.883-2.276.797-4.626-.11-.042-.392-.088-.936.164l-.063.03-.028-.065c-.196-.472-.458-.996-.582-1.118-.07.084-.256.348-.6 1.091l-.032.068-.064-.038c-.004-.003-.431-.255-.892-.082.256.34 1.274 1.853.914 3.995.24.04 1.008.206 1.204.75m-3.93.53c-.506-.38-1.062-.21-1.388.126-.328.34-.482.904-.09 1.395l.216.217-.296.125c-.238.098-.285.323-.253.485.032.158.156.342.4.342h.247l-.034.503c0 .891.766 1.643 1.662 1.645l.647-.097.04.25c.016.578.455.885.826.973.379.088.919.008 1.194-.512l.25-.455.155.465a.097.097 0 0 1 .04.062.438.438 0 0 0 .38.25.424.424 0 0 0 .392-.232l.126-.25.244.202c.293.282.703.367 1.095.228a1.05 1.05 0 0 0 .705-.857l.04-.249.275.078.224.056c.239-.004.44-.19.445-.416l-.127-.417.19-.114.022-.01a1.607 1.607 0 0 0 1.28-1.78c-.084-.814-.806-1.45-1.636-1.45l-.307.04v-.31l.028-.152a.423.423 0 0 0-.332-.415.408.408 0 0 0-.468.22l-.166.333-.21-.294a1.062 1.062 0 0 0-1.2-.352l-.05.024-.012.006a.668.668 0 0 0-.131.051 1.37 1.37 0 0 0-.138.09c-.026.02-.05.041-.075.064a1.118 1.118 0 0 0-.137.141l-.26.43-.123-.497a1.935 1.935 0 0 0-.174-.357c-.017-.022-.032-.042-.05-.063a1.049 1.049 0 0 0-.142-.14c-.013-.012-.03-.022-.043-.032l-.026-.018a1.154 1.154 0 0 0-.951-.157 1.025 1.025 0 0 0-.664.566l-.293.626-.126-.666c-.066-.252-.29-.34-.482-.315-.17.022-.37.143-.37.413v.446zm10.012-7.389c-.035-.014-.058-.025-.067-.027l-.02-.004-.006-.008c-.107-.049-2.321-.997-4.074.005-1.606.9-3.571.405-4.6.03a1.03 1.03 0 0 0-.061-.023l-.011.004-.012-.015c-.02-.012-2.141-1.093-4.016.004-1.456.82-3.198.564-4.216.294v.867c.838.23 2.613.56 3.972-.234l.002-.002a4.265 4.265 0 0 1 2.107-.532c1.247 0 2.243.47 2.36.53.007.002.62.253 1.422.377.145-.262.287-.46.419-.594l.164-.164.163.161c.204.186.372.46.482.67a3.415 3.415 0 0 0 1.586-.446c1.994-1.144 4.38-.07 4.523-.005.01.002.022.007.044.017.694.28 2.44.836 3.969.1v-.825c-1.176.481-2.631.418-4.13-.18m-.003-1.336a.508.508 0 0 0-.064-.024l-.018-.006-.008-.006c-.105-.05-2.29-1.016-4.073-.025-1.607.921-3.573.432-4.6.058a.321.321 0 0 0-.062-.02l-.011.001-.012-.014c-.02-.012-2.144-1.092-4.016-.025-1.456.84-3.198.59-4.216.322v.868c.838.23 2.613.56 3.972-.234h.002a4.25 4.25 0 0 1 2.11-.536c1.238 0 2.226.464 2.356.53l.044.017c.759.283 2.687.85 4.193-.012 1.998-1.146 4.383-.07 4.523-.004l.044.017c.694.28 2.439.836 3.969.1v-.853c-1.177.483-2.635.43-4.133-.154m-.001-1.336c-.033-.013-.055-.022-.065-.023l-.016-.006-.008-.006c-.102-.05-2.3-1.039-4.073-.025-1.61.924-3.574.433-4.603.057a.384.384 0 0 0-.06-.02l-.01.001-.012-.013c-.02-.012-2.145-1.09-4.016-.025-1.456.84-3.198.591-4.216.322v.868c.838.23 2.613.561 3.972-.234h.002a4.265 4.265 0 0 1 2.11-.536c1.238 0 2.226.465 2.356.53l.044.017c.759.283 2.687.85 4.193-.01 1.995-1.147 4.383-.072 4.523-.005.01.002.022.007.044.016.694.28 2.439.836 3.969.1v-.853c-1.18.484-2.638.431-4.134-.155m.003-1.333c-.035-.012-.057-.022-.066-.024l-.018-.005-.008-.007c-.103-.05-2.295-1.04-4.073-.025-1.606.921-3.572.432-4.6.06l-.062-.023-.011.002-.012-.014c-.02-.01-2.141-1.093-4.016-.025-1.516.875-3.337.551-4.216.311v.867c.724.208 2.563.602 3.972-.222h.002a4.252 4.252 0 0 1 2.11-.537c1.238 0 2.226.466 2.356.532a.583.583 0 0 1 .044.015c.759.283 2.687.85 4.193-.01 1.998-1.146 4.383-.07 4.523-.005l.044.016c.694.281 2.439.838 3.969.101v-.854c-1.177.483-2.634.431-4.131-.153m-.074-1.39a.741.741 0 0 0-.044-.017c-.717-.282-2.547-.845-4.047.012-2.007 1.151-4.513.075-4.67.005-.01-.003-.022-.009-.044-.018-.683-.289-2.441-.868-3.987.013-1.518.854-3.338.54-4.216.305v.868c.724.202 2.563.585 3.974-.218a4.181 4.181 0 0 1 2.117-.552c1.24 0 2.225.482 2.35.547.009.004.022.007.043.017.759.282 2.687.847 4.193-.012 1.996-1.145 4.383-.07 4.523-.005l.044.018c.694.28 2.439.836 3.969.1v-.854c-1.975.812-4.07-.146-4.205-.209m.118-.446l.067.025.019.005.008.008c.105.051 2.177 1.01 3.993.135v-.52h-5.294a7.52 7.52 0 0 1 1.207.347m-8.685.057l.043.016c.759.283 2.687.848 4.193-.01a3.773 3.773 0 0 1 1.063-.41h-6.451a5.213 5.213 0 0 1 1.152.404m-8.441.222c.724.203 2.56.586 3.974-.216.332-.193.668-.324.999-.41h-4.973zM56.94 90.398c-.756.338-1.213.543-1.338.602-.104.452-.68 2.283-3.163 2.283-1.934 0-3.055-1.556-3.583-2.586-.68 1.987-2.1 2.348-2.52 2.41-.124.031-.276.031-.422.031-1.63 0-2.232-.924-2.455-1.576-.445.788-1.057 1.297-1.823 1.517-1.072.267-2.404-.067-3.394-.855-.911-.71-1.9-1.545-2.515-2.072v7.854H56.94zm0-21.284V40.948a21.613 21.613 0 0 0-14.965 6.373c-4.03 4.04-6.248 9.388-6.248 15.06v6.733zm22.076.862H57.804v28.03h21.213zm0-.862V62.38c0-.363-.01-.73-.03-1.096a9.877 9.877 0 0 0-.024-.346 5.094 5.094 0 0 1-.015-.18c-.005-.06-.01-.12-.013-.179-.01-.124-.018-.252-.03-.375a14.585 14.585 0 0 0-.072-.57l-.016-.124-.02-.153c-.01-.073-.017-.145-.028-.216-.046-.294-.1-.58-.152-.848-.006-.03-.011-.063-.018-.094a19.27 19.27 0 0 0-.242-1.069l-.008-.034-.006-.023c-2.407-9.309-10.838-15.909-20.54-16.103v28.144zM57.08 40.084h.552a22.492 22.492 0 0 1 12.884 4.2c3.693 2.638 6.462 6.261 8.01 10.48.012.028.02.057.03.085l.023.068c.085.236.197.55.296.872.018.058.035.117.05.176l.038.126.015.052c.066.226.136.46.196.694.024.09.044.183.065.273.012.053.023.107.037.161l.037.152c.037.158.076.321.109.484.027.121.047.244.068.363l.03.176.033.175c.023.123.047.251.066.38.025.153.043.31.06.463.009.057.015.112.022.17l.023.171c.012.1.027.202.037.305.02.201.035.405.048.605l.009.13.013.156c.007.077.013.157.017.237.019.378.03.762.03 1.142v36.488H34.866V62.38c0-5.903 2.308-11.467 6.5-15.669 4.187-4.198 9.768-6.552 15.715-6.628" fill="#000000"/><path d="M40.943 53.445a.504.504 0 0 0-.154-.358.505.505 0 0 0-.717 0 .518.518 0 0 0-.152.385.444.444 0 0 0 .152.331c.1.1.227.154.36.154a.502.502 0 0 0 .357-.154.453.453 0 0 0 .154-.358m-.512.997c-.253 0-.5-.096-.717-.284-.37-.4-.37-1.028.005-1.403.213-.18.46-.278.712-.278.254 0 .5.097.715.282.371.371.372.998-.004 1.404a1.077 1.077 0 0 1-.71.28M53.756 53.445c0 .111.025.261.146.352l.008.006a.529.529 0 0 0 .748-.003.45.45 0 0 0 .151-.327.525.525 0 0 0-.54-.54.502.502 0 0 0-.359.154c-.1.1-.154.226-.154.358m.512-.967c.284 0 .531.097.713.28.191.175.3.415.305.671a1 1 0 0 1-1.018 1.013.956.956 0 0 1-.687-.283.984.984 0 0 1-.28-.714c0-.26.1-.505.28-.686a.978.978 0 0 1 .687-.28" fill="#000000"/><path d="M41.34 66.855l.253.012 5.725-5.668.047-.046 5.77 5.712c.048-.001.129-.005.224-.01.14-.006.31-.014.422-.017.035-.138.085-.37.127-.561.022-.103.04-.193.054-.25l-.69-.66 1.345-1.313.048.048.387.387c.098-.097.247-.24.393-.38.132-.125.263-.251.35-.337-.187-.19-.58-.582-.77-.772-.192.21-.66.665-.872.869l-.08.078-.03.639-1.6.224.289-1.568.637-.03.184-.185c.226-.227.58-.58.739-.737-.134-.146-.418-.421-.613-.61l-.14-.136c-.177.158-.538.517-.738.716.158.137.4.379.413.39l.049.049-1.345 1.313-3.723-3.692.882-.851h.116c.303 0 .577-.114.796-.332.137-.114.228-.273.295-.511l.042-.243.204.042c.467.027.913-.131 1.253-.445a1.64 1.64 0 0 0 .389-.577l.042-.168h.133c.27-.061.51-.147.69-.247l.129-.128.129.129c.676.418 1.565.323 2.114-.226a1.64 1.64 0 0 0 .195-2.091l-.084-.125.084-.124a1.636 1.636 0 0 0-.195-2.09 1.68 1.68 0 0 0-2.118-.195l-.125.084-.125-.084a1.68 1.68 0 0 0-2.118.196 1.68 1.68 0 0 0-.228 2.083l.13.13-.13.129a2.397 2.397 0 0 0-.245.662v.16l-.16.04a1.608 1.608 0 0 0-.586.363 1.502 1.502 0 0 0-.444 1.257v.2l-.197.04a1.352 1.352 0 0 0-.55.302 1.058 1.058 0 0 0-.3.85v.115l-.916.92v-.164l-.783-.754v-.122a.982.982 0 0 0-.33-.845 1.17 1.17 0 0 0-.55-.301l-.164-.044v-.204a1.44 1.44 0 0 0-.476-1.25 1.565 1.565 0 0 0-.581-.36l-.123-.042-.04-.161a1.384 1.384 0 0 0-.25-.666l-.083-.125.083-.124a1.638 1.638 0 0 0-.193-2.09 1.682 1.682 0 0 0-2.12-.195l-.12.08-.16-.081a1.654 1.654 0 0 0-2.09.198 1.61 1.61 0 0 0-.223 2.088l.085.124-.084.125a1.611 1.611 0 0 0 .224 2.09c.548.548 1.446.643 2.087.226l.163-.122.123.122c.193.11.416.193.66.247h.162l.04.16c.09.244.206.43.36.584a1.74 1.74 0 0 0 1.248.447l.24-.04.043.24c.026.19.133.376.3.519.182.206.47.324.792.324h.114l.882.85-3.752 3.695-1.315-1.316.048-.048c.012-.011.255-.253.412-.39a20.676 20.676 0 0 0-.74-.718c-.186.164-.587.563-.773.749.118.108.313.302.503.492.177.177.377.378.438.429l.643.03.287 1.568-1.597-.224-.06-.643c-.051-.06-.251-.26-.43-.44-.19-.19-.384-.384-.494-.503l-.261.263-.51.509.17.166c.194.188.429.414.553.552.154-.134.407-.386.41-.388l.047-.048 1.314 1.314-.658.659c.034.157.12.593.156.81.117.002.275.012.417.018m-.235-3.113l.003.023c0 .012.022.234.026.406.089.006.2.023.327.043l.215.03a8.98 8.98 0 0 1-.063-.376l-.022-.152c-.168-.021-.405-.021-.407-.021h-.028l-1.432-1.402 1.46-1.43 1.402 1.4-.05.049-.388.39c.077.085.197.205.314.323.119.118.24.239.322.329.232-.232 1.028-1.02 1.758-1.743l1.303-1.291a72.97 72.97 0 0 0-.396-.396 1.488 1.488 0 0 1-1.06-.451c-.17-.142-.261-.358-.343-.55l-.006-.014a2.099 2.099 0 0 1-1.453-.6 1.9 1.9 0 0 1-.408-.628 2.952 2.952 0 0 1-.644-.242c-.833.487-1.863.362-2.575-.32a2.119 2.119 0 0 1-.628-1.527c0-.345.11-.722.307-1.045a2.058 2.058 0 0 1-.307-1.043c0-.59.224-1.123.629-1.5a2.145 2.145 0 0 1 2.6-.35 2.133 2.133 0 0 1 1.07-.291c.554 0 1.097.22 1.5.64.407.378.63.91.63 1.5 0 .33-.1.7-.28 1.044.09.162.183.359.217.618.25.09.476.23.654.408.383.384.595.887.6 1.423.242.095.429.215.587.373.294.265.457.654.457 1.094v.002l.367.367.107-.113c.1-.106.194-.206.26-.26 0-.438.164-.825.455-1.087.15-.15.333-.273.56-.374.006-.518.228-1.023.63-1.425a1.9 1.9 0 0 1 .628-.408c.052-.217.127-.41.24-.615a2.073 2.073 0 0 1-.308-1.046c0-.553.23-1.1.629-1.5a2.146 2.146 0 0 1 2.6-.35 2.088 2.088 0 0 1 2.57.348c.408.379.632.912.632 1.502 0 .376-.098.746-.278 1.043.18.3.278.668.278 1.045a2.11 2.11 0 0 1-.63 1.528 2.116 2.116 0 0 1-2.572.32 2.85 2.85 0 0 1-.62.24c-.112.225-.23.454-.406.63a2.207 2.207 0 0 1-1.453.599c-.084.192-.201.418-.37.557-.256.284-.634.45-1.037.458-.075.073-.265.263-.4.398.193.203.868.869 1.52 1.515a125.77 125.77 0 0 1 1.52 1.519l.654-.653c-.158-.137-.401-.38-.412-.391l-.05-.048 1.432-1.401 1.43 1.43-1.403 1.402h-.027c-.004 0-.257 0-.407.02-.025.133-.067.34-.094.53l.149-.023c.14-.022.285-.045.4-.052.007-.172.029-.394.03-.405l.003-.023 1.399-1.401 1.43 1.432-1.402 1.4-.438-.437c-.172.15-.478.456-.655.632l.5.5-.28 1.42-1.242.063-.08-.08-5.492-5.435c-.584.554-5.5 5.443-5.551 5.495l-.021.02-1.273-.062-.28-1.421.027-.026c.014-.014.314-.313.5-.478a80.302 80.302 0 0 0-.37-.354l-.287-.275c-.153.13-.41.387-.413.39l-.047.049-1.404-1.402 1.462-1.43zM59.895 65.454v.007c.247-.006 1.122-.384 2.15-1.19.052-.024.111-.085.163-.137.337-.28 1.038-.863 1.68-1.535.034-.034.07-.071.105-.111-.598.366-1.168.597-1.735.702a3.172 3.172 0 0 1-1.149.063c-.827 1.064-1.213 1.941-1.213 2.201m2.384-.132l.093.067a.987.987 0 0 0 .145-.08h-.215a.056.056 0 0 1-.04-.016.061.061 0 0 1-.017-.042c0-.384.268-.695.389-.817.017-.031.058-.086.119-.166-.08.062-.355.215-.536.4a1.004 1.004 0 0 0-.23.389zm1.967-1.507a4.449 4.449 0 0 0-1.294.898c-.064.065-.242.283-.27.487.397-.272 1.057-.79 1.564-1.385m-.018-1.96a.448.448 0 0 1 .07-.043c.145-.108.27-.207.377-.291.13-.104.236-.188.319-.242 0-.065.01-.193.02-.358.007-.092.013-.178.015-.225a6.427 6.427 0 0 1-.622-.512l-.04.037a9.364 9.364 0 0 1-.222.154c-.078.052-.522.42-.965.71-.397.26-.792.445-.922.48-.118.03-.21.053-.274.057-.187.24-.39.493-.655.745.225.03.555.071.914.071.797-.039 1.424-.216 1.92-.546.026-.012.045-.025.065-.038m1.124-1.437l.086.058c.018.01.028.03.026.05-.002.014-.08 1.343-.088 1.643.233.103.472.208.707.29.101-.126.405-.467.906-1.019l.204-.203a.06.06 0 0 1 .04-.017l.099.002c.284.057.573.085.859.085.237 0 .929-.087.929-.087.015 0 .03.007.04.018l.699.757.406.46c.046-.022.667-.238.786-.272.125-.446.407-.714.407-.714-.16-.096-.596-.696-.596-.696l-1.09-1.372-.144-.168a2.475 2.475 0 0 1-.612.244c-.26.06-.559.118-.826.118-.387 0-.76-.075-1.185-.238-.218-.077-.407-.173-.407-.173l-.405-.257c-1.127-.785-1.192-2.464-1.192-2.464 0-.883.378-1.712 1.067-2.338l.111-.084.027-.026c.066-.066.435-.31.88-.47a3.903 3.903 0 0 1 1.104-.215c.315 0 .596.041.822.118.122.02.244.067.361.112.044.017.085.033.128.048l.041-.076c.07-.119.14-.243.224-.348l.784-1.306c.086-.137.161-.284.24-.44l.334-.59-.148-.096s-.275-.15-.57-.24c-.047-.014-.092-.035-.136-.048l-.412.438-.695.783a.059.059 0 0 1-.044.02s-.013 0-.019-.003l-.078-.026h-.03c-.285-.058-.548-.058-.802-.058-.282 0-.574 0-.852.056l-.088.028a.058.058 0 0 1-.06-.017l-.439-.49c-.253-.279-.562-.62-.665-.729-.236.081-.475.187-.71.29.004.19.032.836.058 1.263l.03.378a.055.055 0 0 1-.039.058l-.08.028a4.883 4.883 0 0 0-.972.917.943.943 0 0 0-.192.275c-.002.006-.006.01-.01.016l-.059.056c-.013.012-.03.024-.044.018a93.727 93.727 0 0 0-1.648-.087c-.049.08-.19.423-.226.503-.03.07-.06.134-.087.204.007.005.015.01.021.016.043.033 1.22 1.085 1.226 1.091a.053.053 0 0 1 .017.061s-.084.628-.084.91c0 .255 0 .545.056.823l.028.087a.053.053 0 0 1-.017.061l-1.072.958-.172.147c.026.061.055.127.085.191.036.082.073.162.105.243a.781.781 0 0 0 .12.246c.27-.008 1.634-.085 1.648-.087.022-.008.038.008.05.025l.065.094c.055.085.11.165.193.25.328.392.638.683.975.917m6.242 2.644s.641-.565 0-1.277c0 0-.66.604 0 1.277m2.842 1.566c-.016-.148 0-.18 0-.18a.734.734 0 0 1 .174.035l-3.167-3.874-.004.003-.045-.053a22.478 22.478 0 0 0-.26-.332c-.204-.26-.398-.507-.578-.769a18.603 18.603 0 0 1-.784-.986c-.22-.26-.417-.512-.59-.733-.078-.099-.15-.195-.225-.285l-.124-.166c-.162-.214-.286-.379-.379-.498l-.077.108c.088.125.236.314.421.546.077.1.161.205.251.317l.411.527c.123.161.257.334.402.517l.173.22c.182.231.388.493.611.742.181.26.374.502.576.761zm-2.233-2.204l.058-.087-.087-.116zm.203 1.16s.251-.24.232-.486c-.019-.246-.232-.442-.232-.442s-.5.496 0 .928m.638.406c.036.228.146.29.146.29s.34-.312 0-.58c0 0-.18.061-.146.29m.87.957s.217-.149 0-.435c0 0-.239.258 0 .435m.987-1.095c-.153-.254-.433-.04-.433-.04.265.242.433.04.433.04m-.438-.782s-.05-.114-.274-.172c-.225-.057-.303.117-.303.117.235.365.577.055.577.055m-.846-.628c.208.014.41-.2.41-.2-.37-.422-.788.006-.788.006s.168.18.378.194m-.195-1.034s-.378-.465-.784-.029c0 0 .303.406.784.03m-1.19-.379l.086.117.176-.087zm.87-.595c-.709-.622-1.275.071-1.275.071.747.6 1.274-.07 1.274-.07m-.808-1.275h.06l.77.03h.178l.401.028h.238l.035-.035c.051-.102.091-.207.135-.318.028-.067.055-.137.085-.212a.293.293 0 0 1 .041-.127l-.57-.512-.406-.348-.178-.149-.087-.086a.06.06 0 0 1-.014-.059l.027-.076c.03-.226.057-.488.057-.718v-.26c0-.234-.03-.465-.054-.679l-.03-.087a.058.058 0 0 1 .014-.058l.265-.267.406-.347.317-.26.23-.2.03-.03a.387.387 0 0 1-.046-.147 4.49 4.49 0 0 1-.11-.25 3.677 3.677 0 0 0-.114-.255l-.038-.058-.81.054-.67.03h-.172a.059.059 0 0 1-.052-.032l-.025-.05a4.51 4.51 0 0 0-.807-.863 1.254 1.254 0 0 0-.204-.164c-.163.261-.369.598-.548.908-.177.264-.317.478-.377.566.132.107.265.218.373.354.451.54.71 1.263.71 1.98 0 .707-.252 1.401-.707 1.947a2.68 2.68 0 0 1-.235.265c.023.029.058.07.094.11.043.05.091.106.138.165.097.118.217.258.34.401.197.235.402.477.498.608l.04.025c.122-.128.55-.582.681-.737zm-3.566-2.73c.097.126.192.267.293.416l.03.045c.075.1.151.204.227.308.187.255.38.517.585.764.058.074.11.147.162.222l.116.162c.146-.154.272-.33.396-.503l.013-.018c.238-.416.37-.9.37-1.364 0-.477-.125-.936-.37-1.365a2.476 2.476 0 0 0-.492-.61 6.192 6.192 0 0 0-.193.265l-.028.044c-.249.386-.505.784-.785 1.146l-.232.35zm-1.815 2.42l.05.031c.035.02.068.04.092.051.351.146.754.228 1.137.228.304 0 .571-.039.792-.113l.366-.146c-.058-.08-.117-.155-.175-.23-.072-.095-.145-.188-.216-.288l-.18-.234c-.225-.29-.457-.59-.674-.894l-1.026 1.357zm1.253-3.214c.27-.379.544-.767.791-1.179l.01-.016c.101-.15.203-.304.304-.477a1.684 1.684 0 0 0-.284-.087 2.637 2.637 0 0 0-.795-.142c-.4 0-.787.084-1.118.246zm-1.899-1.117a2.666 2.666 0 0 0-.83 1.943c0 .692.282 1.366.775 1.856l.133-.174c.214-.286.434-.579.643-.876.1-.129.2-.265.3-.402.093-.128.188-.256.282-.379l-.585-.863zm.337-.253c.094.141.284.428.477.713.28.434.611.922.762 1.126l.076-.107-.2-.297c-.197-.29-.49-.728-.733-1.06 0-.003 0-.004-.002-.005l-.11-.177a4.146 4.146 0 0 0-.175-.273l-.107.061zm5.351-3.834l-.073-.1c-.13.234-.259.468-.39.701-.267.536-.573 1.054-.843 1.513l-.037.063c-.245.407-.497.827-.745 1.214-.165.271-.34.533-.51.787-.103.155-.205.31-.303.461l-1.973 2.786c-.17.252-.369.51-.548.741l.022.016c.064-.088.133-.174.201-.26.08-.1.158-.202.232-.303.18-.233.355-.467.523-.693.127-.169.25-.334.373-.494l.203-.29c.286-.428.575-.833.855-1.226l.017-.023c.28-.364.537-.762.785-1.147l.142-.222.665-1.034c.308-.524.584-.997.84-1.477.193-.332.393-.675.564-1.013m-6.977.928c-.002-.019-.004-.035-.004-.047l-.224-.418c-.154-.292-.31-.583-.467-.876a54.552 54.552 0 0 0-.216-.425c-.112-.222-.219-.43-.32-.64l-.073.115c.151.336.314.651.473.955.082.156.162.311.238.464l.017.031c.188.354.384.718.594 1.08a4.976 4.976 0 0 0-.018-.239m-2.562 9.681c.333-.128.645-.332.95-.616l.382-.298c.006-.004.013-.006.02-.008.112-.088.228-.178.361-.252a4.36 4.36 0 0 1-.227-.296c-.149.018-.595.042-.994.06l-.027.214s-.1.58-.465 1.196m-.136-.819s-.005.001-.008.004c-.906.527-1.877 1.72-1.97 1.987v.051c0 .106.084.216.177.304a.055.055 0 0 1 .018-.03l.232-.202c.565-.492 1.01-1.004 1.32-1.52.02-.04.04-.076.06-.11.034-.064.065-.12.086-.18.046-.093.085-.189.12-.275l.023-.058-.058.03m-1.582 2.508c.26.092.543.138.84.138.086 0 .173-.004.26-.012-.486-.034-.88-.113-.99-.162l-.236-.046c.052.038.098.068.126.082m14.457 2.638s.171-.354-.436-.527c0 0-.06.502.436.527M60.52 63.132a.044.044 0 0 1-.017-.008l-.018-.01c-.607-.394-.654-.766-.585-1.014.111-.334 1.131-1.667 2.143-2.232a3.63 3.63 0 0 1 .488-.223c-.126.004-.228.007-.285.007h-.058a.058.058 0 0 1-.047-.026l-.064-.094-.008-.017c-.14-.31-.287-.63-.399-.976l-.029-.086a.057.057 0 0 1 .014-.06l.553-.524.704-.619-.005-.043c-.026-.258-.052-.504-.052-.745 0-.286.028-.543.057-.79l-.704-.647-.552-.494a.054.054 0 0 1-.015-.06l.028-.087c.1-.3.232-.635.414-1.029l.058-.088a.058.058 0 0 1 .047-.026l.063.002c.273.027 1.426.08 1.648.086.076-.11.163-.21.255-.314.045-.05.09-.103.14-.163.18-.178.38-.38.604-.554-.23-.403-.429-.773-.614-1.116a32.767 32.767 0 0 1-1.04-2.026l-.053-.05a.059.059 0 0 1-.008-.072l.551-.87a.055.055 0 0 1 .05-.027h.003c.022.002.04.014.047.034l.116.26.208.4c.076.142.152.287.228.441.15.32.312.62.484.935l.134.247.057-.019a6.409 6.409 0 0 1 1.024-.44l.087-.028a.057.057 0 0 1 .062.017l.84.955.3.3.036-.004a7.23 7.23 0 0 1 .782-.052c.244 0 .49.024.75.05l.041.005.79-.848.348-.406a.059.059 0 0 1 .062-.017l.096.032c.356.125.838.345.838.345l.168.087.053.018.056-.11c.115-.173.201-.347.287-.519l.116-.203a.058.058 0 0 1 .047-.03c.018-.006.038.008.05.023l.494.67.06.086a.063.063 0 0 1 .005.052l-.032.094-.03.06a39.197 39.197 0 0 1-.899 1.563l-.067.14.031.03.02.02c.334.251.631.54.91.88l.01.021c.02.04.041.078.06.103.044 0 .11-.003.19-.009l1.376-.079h.145c.02 0 .037.011.047.026l.064.095.027.058c.15.296.268.62.382.932a.082.082 0 0 1 .003.021l.026.098a.055.055 0 0 1-.014.057l-1.256 1.144c.027.248.054.504.054.79 0 .241-.024.487-.05.745l-.005.045c.041.04.144.138.294.266l.324.267.228.23.378.317a.086.086 0 0 1 .016.018l.028.06a.058.058 0 0 1 .003.042l-.029.088c-.114.313-.232.638-.38.935l-.033.064-.06.087a.054.054 0 0 1-.047.026h-.468l-.4-.029h-.18a8.253 8.253 0 0 0-.34-.025c-.147-.009-.265-.016-.323-.033-.019.026-.04.066-.06.105a.112.112 0 0 1-.01.018l-.055.07-.112.14c.811-.05 1.131.365 1.131.365 1.277.172 2.508 1.84 2.508 1.84l-.057.03c-1.487-1.583-2.407-1.509-2.407-1.509l-.349.232c.618.115.697.348.697.348 1.421.058 2.725 2.118 2.725 2.118l-.075.031c-1.429-2.064-2.622-1.8-2.622-1.8-.329.401-.899.32-.899.32l.145.172c.624-.475 1.157.026 1.157.026 1.56.215 2.73 2.44 2.73 2.44l-.087.059c-1.443-2.387-2.61-2.146-2.61-2.146-.32.343-.697.26-.697.26l.146.175a.726.726 0 0 1 .956 0c1.332.147 2.467 2.783 2.467 2.783l-.088.03c-1.24-2.553-2.32-2.495-2.32-2.495-.203.32-.61.231-.61.231l.131.175c.63-.402 1 .06 1 .06s.431.373.921 1.021c.49.65 1.053 1.906 1.053 1.906l-.087.03s-.052-.107-.589-1.101c-.536-.996-1.326-1.482-1.326-1.482-.202.203-.494.175-.494.175l.286.386c.633.316.614.804.614.804.805 1.254 2.175 2.002 2.175 2.002l-.055.072c-1.937-1.112-2.487-1.717-2.487-1.717-.703-.194-.735-.705-.735-.705l-.199-.258c.024.258-.149.404-.149.404.348.985 2.38 1.855 2.38 1.855l-.032.088c-2.025-.782-2.639-1.828-2.639-1.828-.662-.553-.058-1.103-.058-1.103l-.145-.176c-.042.436-.262.554-.262.554.39 1.557 2.12 2.408 2.12 2.408l-.032.057c-2.2-1.143-2.406-2.435-2.406-2.435-.652-.675.03-1.277.03-1.277l-.176-.204c-.026.579-.346.754-.346.754.058 1.416 1.391 2.496 1.391 2.496l-.057.058c-1.664-1.563-1.655-2.583-1.655-2.583-.376-.313-.317-.638-.317-.638l-.148.144c.213 1.526 1.337 2.64 1.337 2.64l-.088.03c-1.33-1.374-1.565-2.67-1.565-2.67s-.4-.173-.459-.727c-.123.06-.809.306-.809.306a.06.06 0 0 1-.059-.016l-1.14-1.253c-.283.053-.542.053-.792.053-.276 0-.536 0-.82-.054l-1.139 1.253c-.015.017-.039.023-.06.017l-.088-.03c-.343-.115-.699-.234-1.028-.412l-.087-.058a.062.062 0 0 1-.026-.048c0-.007 0-.123.014-.306-.034.042-.07.09-.11.143-.128.167-.288.376-.467.602-.19.262-.384.52-.559.747.173-.087.34-.16.49-.223.26-.117.462-.176.478-.18l.377-.058a.064.064 0 0 1 .058.027.058.058 0 0 1 0 .063l-.203.287c-.18.303-.428.577-.645.822-.76.816-1.69 1.432-1.932 1.491a.248.248 0 0 1-.216.005c-.235-.038-.427-.28-.522-.4l-.087-.114a.042.042 0 0 1-.009-.02l-.037-.127c-.74.478-1.362.75-1.708.75a.062.062 0 0 1-.018-.003l-.26-.087a.054.054 0 0 1-.037-.036l-.087-.261a.058.058 0 0 1-.004-.018c0-.467.484-1.39 1.206-2.316zM68.12 92.413h-1.406l.507-.625zM67.476 89.686l-.468.068 1.211-.555.035.283.557.205v.689l-.123-.165c-.462-.626-1.181-.53-1.212-.525M65.245 85.143a2.24 2.24 0 0 0-1.38-.562l-.283-.016 1.09-.479-.033.394.942.089-.097.354.484.404 1.023.529h-.279c-.587 0-1.028-.336-1.467-.713" fill="#000000"/><path d="M60.149 90.525c.05 0 .119-.016.159-.074-.012-.022-.044-.059-.134-.07zm5.929-17.747a.47.47 0 0 0-.215.211c.05.054.128.053.176.047zm-1.16.716a.387.387 0 0 0-.011.177c.036.005.092.004.13-.039zm-5.745 6.986l.116.146a.252.252 0 0 0 .102-.155zm.068 9.324l-.076.115a.275.275 0 0 0 .146.028c.002-.033-.008-.088-.07-.143m2.017-10.747a.403.403 0 0 0-.192.106.415.415 0 0 0 .175.088zm5.622-6.015a.303.303 0 0 0-.172.098c.028.018.07.04.122.047a.5.5 0 0 1 .05-.145m5.413.01l-.075-.135a.456.456 0 0 0-.03.162c.02.007.048.01.07.003.005-.003.02-.008.035-.03m2.087-.156a.455.455 0 0 0-.111.047.163.163 0 0 0 .075.032.633.633 0 0 1 .036-.079m.45 11.397c-.195.25-.413.496-.624.735-.26.295-.53.6-.768.92-.753.978-1.57 2.462-1.177 3.973.212.83 1.02 1.687 2.65 1.633v-.583h.215c.284 0 .496-.044.629-.134.092-.062.126-.167.163-.279.02-.065.043-.134.076-.19.105-.183.233-.322.384-.417l-.286-.287.04-.126c.013-.033.272-.734.999-1.003-.545-.189-1.09.033-1.516.628l-.413.623v-1.37c-.278.143-.303.39-.332.694a2.642 2.642 0 0 1-.057.381c-.077.29-.321.981-.917 1.12-.285.078-.538.033-.756-.134-.467-.357-.637-1.177-.637-1.642 0-1.013 1.32-2.332 2.108-3.122l.698-.73v.545s0 .116.01.264c.288-.477.405-1.006.375-1.683l-.006-.174.664.664c.08-.657.009-1.19-.212-1.588l-.21-.336h.865c-.115-.287-.404-.897-.876-1.17h-.083l-.054-.109v-.007a2.727 2.727 0 0 0-1.414-1.369l-.082-.042-.038-.112a2.628 2.628 0 0 0-.51-.849c-.115-.135-.282-.254-.443-.369-.364-.259-.738-.527-.673-1.019a.816.816 0 0 1 .434-.637c.298-.159.7-.158 1.028.005.334.18.68.467 1.034.857l.008.01s.185.301.286.47a.518.518 0 0 0 .254-.465v-.24h.908c-.353-.62-1.792-3.16-1.937-3.454-.421-.268-.415-.689-.384-.888a.253.253 0 0 1-.112-.022.3.3 0 0 1-.145-.147.373.373 0 0 0-.08.203l-.005.062h-.45v-.239a.428.428 0 0 1-.382-.092.59.59 0 0 0-.091.273l-.081.564-.098-.126-.312-.398c-.068.097-.182.137-.297.14.045.207.172.384.384.54.239.18.548.272.829.246h.074l.073.036.012.01c.388.325.584.988.422 1.417-.114.296-.376.452-.758.443-.441-.025-.73-.376-.981-.686a5.073 5.073 0 0 0-.198-.235 24.528 24.528 0 0 0-.874-.903c-.084.117-.094.268-.027.426l.12.325h-.998a.483.483 0 0 0 .077.365c.085.114.232.182.424.195l.084.036.046.042c.3.302.52.857.366 1.253-.045.18-.166.295-.281.406a1.738 1.738 0 0 0-.135.138c-.166.25-.16.558-.133.834v.054c0 .01.032.841.4 1.717l.135.32-.244-.245a2.83 2.83 0 0 1-.711-1.597 2.394 2.394 0 0 1-.584-.009c-.727-.076-1.185-.279-1.441-.638-.246-.37-.22-.927.058-1.268.278-.38.804-.45 1.083-.46-.03-.22-.14-.593-.535-.62h-.083l-.86-.742-.873-.729a1.222 1.222 0 0 1-.342-.593.524.524 0 0 1-.272-.083.392.392 0 0 0-.025.162v.07h-.455v-.274a.395.395 0 0 1-.28-.079 1.154 1.154 0 0 0-.047.342v.494l-.39-.324c-.038.055-.114.112-.266.128.117.324.399.653.77.893.169.113.479.232.639.095l.078-.077.125.001c.59.093.899.701.899 1.256a.926.926 0 0 1-.333.74c-.254.211-.614.293-.988.228h-.85c.025.25.192.462.452.567l.332.167-.092.066c-.008.005-.702.501-.892.64a.289.289 0 0 0 .124.185c.112.07.296.074.508.011l.46-.127-.06.133s-.256.557-.393.861h3.543a1.03 1.03 0 0 1 .436.003c.392.133.603.577.479 1.006-.054.274-.208.521-.457.736-.328.271-.786.422-1.292.422h-.49c-1.06.03-1.91.102-2.377.705.177.158.319.3.425.42.127-.175.32-.412.33-.424l.033-.042.168.082c.353.19.57.485.61.821.29-.143.57-.167.838-.067.059.03.126.062.192.13l.043.043.003.02s.06.297.114.58c.106-.17.223-.337.229-.345l.028-.038.162.04c.426.115.768.291.992.517.2.244.327.537.38.871l.14-.062c.077-.762.359-2.065 1.372-2.54.164-.075.337-.119.503-.163a2.94 2.94 0 0 0 .48-.155c.288-.144.547-.317.773-.516.304-.228.507-.447.623-.678l.083-.128.159.04c.734.122 1.098.92 1.186 1.563.119.71-.162 1.214-.65 1.794m-5.932 9.41c-.05-.172-.02-.33.082-.444.099-.119.224-.153.356-.098.229.098.434.471.433.695l.01.011c.197.228.54.514 1.083.606a1.873 1.873 0 0 0-.22-1.196c-.178-.035-.355-.197-.44-.409-.075-.195-.056-.385.056-.512.113-.122.248-.155.386-.092.218.098.398.433.4.652.319.175.645.15.995-.079-.22-.08-.48-.263-.675-.666l-.982-.218a2.119 2.119 0 0 1-.128.085c-.117.077-.297.195-.491.336-.541.324-1.195.742-1.36.85v1.14c.205.115.457.362.593.728.139-.218.302-.557.289-.929a.728.728 0 0 1-.387-.46m-2.438-3.66v.206c.033.284-.07.601-.271.825a.814.814 0 0 1-.598.294l-.733.218a8.54 8.54 0 0 0-.077.633h1.73l.523.667h1.079l1.576-1.003.31-.225c.126-.176.157-.377.086-.549a.484.484 0 0 0-.368-.293.553.553 0 0 0-.468.13l-.054.045-.286-.366.049-.043c.19-.164.45-.248.776-.248h.004c.258.032.457.13.62.31.223-.075.56-.275.655-.81-.21.004-.522.025-.526.025l-.06.004-.041-.204c-.092-.492.233-.927.59-1.143-.07-.16-.175-.309-.376-.309h-.057l-.078-.428.049-.022c.547-.236.416-.67.265-1.174-.115-.383-.234-.777-.05-1.108-.273-.08-.474.11-.596.294l-.034.05-.392-.196.012-.055a.965.965 0 0 0-.051-.619 1.471 1.471 0 0 0-.84-.705l-.61.915-.094.141-.202-1.179-.082-.377c-.1-.055-.365-.135-.763.238l-.04.037-.351-.234.02-.052c.088-.219.006-.46-.208-.632-.12.174-.361.481-.371.495l-.048.061-.218-.218v-.01c-.103-.154-.98-1.165-2.037-1.403h-.001c-1.172-.294-1.766-1.075-1.841-1.256l-.001.002-.037-.073v-.073l.003-.018c.074-.27-.065-.536-.342-.647a.487.487 0 0 0-.202-.052h-.213v-.32a.488.488 0 0 1-.32-.15c-.047.143-.042.322-.04.497l.003.138v.17l-.118-.122-.363-.387a.466.466 0 0 1-.454.093.56.56 0 0 0 .08.292l.255.342h-.535c-.014.262-.104.376-.173.426.228.241.587.482 1.095.395h.069c.383.065.734.225.994.455l.017.016c.137.14.279.283.399.433.105.172.19.351.274.524.132.274.257.533.449.775.04.06.082.12.125.18.105.154.213.312.332.45l.376.377h-1.203c.062.194.193.463.593.534l.446.121-.102.084-.72.585c.187.15.495.36.968.31h.087l.019.002c.327.097.602.313.735.58a.823.823 0 0 1 .035.67l-.005.015-.044.041a3.682 3.682 0 0 1-.288.224c.124.128.364.305.658.183l.615-.205-.101.16a35.41 35.41 0 0 1-.51.795h2.464v.206a.87.87 0 0 1-.146.695.739.739 0 0 1-.561.28h-1.394l-.022.086c-.014.055-.028.106-.042.184zm-.47.455h-.345l-.244.465.16-.046.02-.003c.195 0 .356-.225.409-.416m-5.041-2.234c.156-.156.373-.283.67-.395.13-.029.266-.057.402-.086.139-.029.278-.058.417-.09.425-.055.858-.17 1.276-.282l.01-.003c.07-.04.15-.095.222-.142.07-.048.12-.08.155-.102a.379.379 0 0 0-.031-.282c-.072-.13-.233-.24-.441-.299-.81.045-1.308-.44-1.492-.66l-.032-.06-.166.742-.417-.328c-.096.267-.256.746-.26.751l-.036.114-.383-.444c-.445.392-.737.998-.737.998l-.043.122-.153.04h-.012c-.434.026-.544.578-.547.586l-.04.162-.047.006-.235.03a.513.513 0 0 1-.02.344c.1.027.214.032.328.013l.456-.04-.33.524a.573.573 0 0 1 .202.382c.08-.035.145-.079.185-.106a.285.285 0 0 1 .032-.02l.37-.373v.563a.42.42 0 0 1 .25.116c.078-.193.104-.456.079-.803 0-.41.12-.73.368-.978m-.787-8.795l-.148-.182a.691.691 0 0 0-.071.197.433.433 0 0 0 .219-.015m13.38-6.865c-.073.011-.184.047-.242.155a.137.137 0 0 0 .049.046c.04.022.1.025.17.008zM64.908 90.83c-.18-.02-.55-.052-.773-.014-.251.046-.338.326-.34.355 0 .318-.195.385-.36.385-.135 0-.224.124-.274.23.102-.037.247-.076.407-.076a.372.372 0 0 0 .38-.354c0-.163.229-.299.274-.324l.675-.183zm-6.271-2.132a.474.474 0 0 0 .059.09.33.33 0 0 0-.008-.095zm-.43-.418l.058-.005c.005 0 .494-.049.679-.079.062-.186.26-.619.788-.753.11-.26.467-.9.994-1.243l.167-.126.168.194c.09-.253.22-.639.22-.644l.032-.092.342.272c.072-.313.206-.87.206-.87l.034-.145.48.67.185-.15c-.46-.27-.585-.783-.585-1.056v-.214h.683a5.46 5.46 0 0 1-.47-.68 5.208 5.208 0 0 1-.204-.4c-.11-.227-.211-.442-.37-.636l-.011-.004-.021-.028c-.211-.29-.561-.493-.961-.552-1.1.146-1.773-.855-1.977-1.407l-.122-.324h.94c-.08-.432.156-.852.416-1.11l.166-.168.048.052c.002.003.22.241.388.417.157-.339.543-.556.953-.526h.215v.841l.009.003c.526.155.797.551.747 1.093.168.256.432.48.803.682.22.122.462.2.693.276l.285.097c.4.144.76.338 1.068.577.648-.776 1.75-.843 2.737-.843h.493c.487 0 .927-.188 1.18-.508a.222.222 0 0 1 .07-.132c.123-.226.102-.507-.04-.628-.084-.055-.19-.07-.34-.046H67.99l-2.954.031.05-.099c.002-.005.23-.462.36-.742a.85.85 0 0 1-.546-.215.728.728 0 0 1-.228-.54l-.042-.125.043-.03c.004-.003.37-.255.614-.412-.332-.267-.491-.698-.381-1.053l.04-.199h1.282c.275.037.525-.017.67-.142a.474.474 0 0 0 .153-.37c0-.3-.117-.676-.444-.768-.616.37-1.367-.262-1.717-.697-.363-.425-.573-1.126-.268-1.64l.126-.256.067.061c.003.002.257.237.437.391.22-.75.92-.87.927-.872l.253-.043v.56c.262-.167.548-.227.74-.227l.71-.043-.575.454a.356.356 0 0 0-.146.271c-.01.151.07.331.204.464l.668.553.97.828c.349.06.614.265.787.614l.005.012c.057.201.089.44.088.668l-.04.23h-.113l-.103-.03c-.345-.03-.81.111-1.001.401-.113.17-.111.363.002.571.16.276.564.454 1.112.49.173.024.345.028.502.028.01-.504.148-.859.427-1.114.385-.35.107-.796-.048-.99-.31-.066-.557-.232-.697-.475a.988.988 0 0 1-.055-.829l.085-.13h.714c-.026-.299.11-.585.383-.799l.172-.086.119.118c.459.431.862.861 1.29 1.317l.024.027c.132.171.38.49.619.5.095.003.18-.038.263-.127.218-.243.03-.648-.181-.873a1.707 1.707 0 0 1-1.388-.664c-.382-.478-.264-1.156.024-1.618l.168-.25.059.072c.002.004.273.342.454.558.296-.529.788-.656.962-.7l.28-.039v.512c.3-.15.67-.158.824-.154l.424.041-.25.331c-.402.5-.097.892.056 1.042l.029.028 2.359 4.177h-1.276c-.088.474-.481.694-.708.752l-.166.041-.457-.764c-.162-.18-.487-.51-.875-.704-.192-.096-.518-.107-.695.03-.105.08-.141.201-.11.357.044.167.198.271.362.38l.102.07c.21.122.39.301.57.481.232.291.408.584.55.921.932.45 1.404 1.25 1.538 1.511.752.486 1.107 1.522 1.143 1.682l.083.29h-.773c.227.614.256 1.34.082 2.007l-.084.382-.088-.088c-.003-.004-.27-.27-.455-.438-.16.903-.805 1.591-.81 1.594l-.372.416-.007-.167a44.396 44.396 0 0 1-.028-.769l-.088.086c-.634.635-1.292 1.291-1.67 2.104-.2.375-.227 1.177.034 1.61a.606.606 0 0 0 .543.321c.54 0 .68-.85.716-1.36.059-.509.477-.899.984-.93l.254-.043v.617c.676-.603 1.607-.613 2.27-.007l.449.41h-.61c-.736 0-1.054.504-1.136.668l.559.498-.331.164c-.313.104-.448.328-.565.651-.096.31-.424.51-.927.563v.56l-.202-.003c-1.01.16-2.081-.156-2.727-.803-1.015-1.042-.854-2.8-.246-4.079.386-.829.984-1.529 1.562-2.206.299-.348.606-.709.884-1.085.433-.548.526-1.049.307-1.677-.111-.339-.326-.583-.607-.694-.203.28-.457.531-.736.725-.376.311-.781.453-1.208.604-.141.051-.287.103-.434.162-.62.234-1.02.935-1.196 2.083.216.04.41.157.467.244l.21.167-.256.17c-.17.101-.17.394.002.844.199.513.32 1.043-.102 1.468.27.218.378.6.394.688l.043.167-.172.086c-.388.146-.482.39-.503.536h.635v.212c0 .977-.591 1.34-.91 1.463a.775.775 0 0 1 0 .461l1.125.284.04.12c.198.524.615.562.845.536h.013l.659-.084-.457.458c-.491.524-1.064.75-1.594.635.13.37.22.867.043 1.337l-.045.18-.198-.043c-.495-.023-.954-.202-1.271-.493-.074.66-.53 1.15-.73 1.337l-.426.385.043-.547a.89.89 0 0 0-.493-.913l-.145-.048v-1.343h-1.155l-.523-.639h-2.106l.189-1.212c-.003.002-.005.005-.008.006a.84.84 0 0 1-.855.722c-.19 0-.37.074-.411.094l-.794.475.264-.892c.065-.263.295-.705.748-.727.009-.197.192-.709.748-.814a2.388 2.388 0 0 1 .499-.018l.164-.99h1.856c.107 0 .22-.033.269-.27h-2.86l.07-.105s.249-.386.406-.635a1.28 1.28 0 0 1-.727-.44 22.193 22.193 0 0 1-1.595.357 3.09 3.09 0 0 0-.497.121c-.178.077-.378.184-.52.408-.128.202-.117.453-.106.696.005.115.01.235 0 .35-.072.645-.442 1.047-.994 1.076h-.244v-.572c-.395.163-.756.093-1.052-.203l-.125-.125.028-.045s.18-.293.322-.52c-.528-.092-.8-.469-.768-1.074z" fill="#000000"/></g></svg>